<?xml version="1.0" ?><svg height="32" id="icon" viewBox="0 0 32 32" width="32" xmlns="http://www.w3.org/2000/svg"><defs><style>
      .cls-1 {
        fill: none;
      }
    </style></defs><rect height="2" width="6" x="19" y="13"/><polygon points="13 21 11 21 11 19 9 19 9 21 7 21 7 23 9 23 9 25 11 25 11 23 13 23 13 21"/><rect height="2" width="6" x="7" y="9"/><rect height="2" width="6" x="19" y="17"/><path d="M27,3H5A2.0023,2.0023,0,0,0,3,5V27a2.0023,2.0023,0,0,0,2,2H27a2.0023,2.0023,0,0,0,2-2V5A2.0023,2.0023,0,0,0,27,3ZM15,5V15H5V5ZM5,17H15V27H5ZM17,27V5H27V27Z"/><rect class="cls-1" data-name="&lt;Transparent Rectangle&gt;" height="32" id="_Transparent_Rectangle_" width="32"/></svg>