<svg xmlns="http://www.w3.org/2000/svg" width="285" height="503" fill="none"><path fill="#FF7100" d="M55.748 488.335A185.822 185.822 0 0 1 44 502a647.938 647.938 0 0 0 11.748-13.665C165.483 347.299 6.648 121.916 157.771 15H171C77.912 217.863 217.317 294.908 55.748 488.335Z"/><path fill="#FFCA2D" d="M271.414 44.331C88.951 122.847 208.817 352.992 45 502 262.091 339.687 152.879 207.975 282.068 52.314c8.524-8.515-3.551-8.87-10.654-7.983Z"/><path fill="#FF3E00" d="M43.867 0c-135.736 142.384 95.813 322.026 0 503C167.626 275.452 18.583 246.177 55.844 0H43.867Z"/></svg>