<svg xmlns="http://www.w3.org/2000/svg" width="2227" height="694" fill="none"><path fill="#000" d="M744.32 587.8c-2.4 0-4.44-.9-6.12-2.7-1.56-1.8-2.16-3.9-1.8-6.3l7.56-57.78c.36-2.64 1.44-4.74 3.24-6.3 1.8-1.68 3.96-2.52 6.48-2.52 5.16 0 8.52 2.22 10.08 6.66L776 554.14c.6 1.2 1.2 1.8 1.8 1.8.84 0 1.44-.6 1.8-1.8l12.24-35.28c1.56-4.44 4.86-6.66 9.9-6.66 2.76 0 4.98.84 6.66 2.52 1.8 1.56 2.88 3.66 3.24 6.3l7.56 57.78c.36 2.4-.3 4.5-1.98 6.3-1.56 1.8-3.54 2.7-5.94 2.7-2.16 0-4.02-.66-5.58-1.98-1.44-1.44-2.28-3.24-2.52-5.4l-2.7-37.62c-.12-1.44-.6-2.16-1.44-2.16s-1.44.6-1.8 1.8l-10.44 29.34c-1.68 4.44-4.68 6.66-9 6.66-1.68 0-3.36-.6-5.04-1.8-1.56-1.2-2.82-2.76-3.78-4.68l-10.44-29.16c-.36-1.08-.96-1.62-1.8-1.62-.72 0-1.2.72-1.44 2.16l-2.88 37.08c-.12 2.16-.96 3.96-2.52 5.4-1.56 1.32-3.42 1.98-5.58 1.98Zm90.996 0c-1.92 0-3.78-.72-5.58-2.16-1.68-1.44-2.52-3.3-2.52-5.58 0-.96.18-1.98.54-3.06l22.68-59.22c.84-2.16 2.22-3.78 4.14-4.86 1.92-1.08 3.9-1.62 5.94-1.62 2.16 0 4.2.54 6.12 1.62 2.04 1.08 3.48 2.7 4.32 4.86l24.3 58.86c.24.48.36.96.36 1.44v1.44c0 2.52-.84 4.5-2.52 5.94-1.68 1.44-3.54 2.16-5.58 2.16-1.44 0-2.88-.42-4.32-1.26-1.32-.72-2.28-1.92-2.88-3.6l-5.22-14.04c-.12-.72-.6-1.08-1.44-1.08h-24.3c-.84 0-1.38.36-1.62 1.08l-5.04 14.22c-.84 1.56-1.92 2.76-3.24 3.6-1.32.84-2.7 1.26-4.14 1.26Zm20.52-34.2h10.62c.72 0 1.26-.24 1.62-.72.48-.6.6-1.32.36-2.16l-4.68-12.78c-.72-1.92-1.62-2.88-2.7-2.88s-1.98 1.02-2.7 3.06l-4.5 12.78c-.24.72-.18 1.38.18 1.98.36.48.96.72 1.8.72Zm69.437 34.2c-2.28 0-4.2-.66-5.76-1.98-1.56-1.44-2.34-3.3-2.34-5.58v-46.98c0-3.6-1.8-5.4-5.4-5.4h-8.82c-2.16 0-3.96-.66-5.4-1.98-1.32-1.44-1.98-3.24-1.98-5.4s.66-3.9 1.98-5.22c1.44-1.44 3.24-2.16 5.4-2.16h44.46c2.28 0 4.08.72 5.4 2.16 1.44 1.32 2.16 3.06 2.16 5.22 0 2.16-.72 3.96-2.16 5.4-1.32 1.32-3.12 1.98-5.4 1.98h-8.64c-3.6 0-5.4 1.8-5.4 5.4v46.98c0 2.28-.78 4.14-2.34 5.58-1.44 1.32-3.36 1.98-5.76 1.98Zm51.23-1.8c-3.48 0-6.3-1.08-8.46-3.24-2.16-2.16-3.24-4.98-3.24-8.46v-50.04c0-3.48 1.02-6.18 3.06-8.1 2.04-2.04 4.74-3.06 8.1-3.06h27.177c5.04 0 7.56 2.4 7.56 7.2 0 2.04-.72 3.78-2.16 5.22-1.44 1.32-3.24 1.98-5.4 1.98h-18.537c-2.4 0-3.6 1.2-3.6 3.6v7.2c0 2.4 1.2 3.6 3.6 3.6h15.837c2.4 0 4.26.66 5.58 1.98 1.32 1.32 1.98 3.06 1.98 5.22 0 1.92-.78 3.6-2.34 5.04-1.44 1.44-3.18 2.16-5.22 2.16h-15.837c-2.4 0-3.6 1.2-3.6 3.6v7.92c0 2.4 1.2 3.6 3.6 3.6h20.337c2.28 0 4.08.66 5.4 1.98 1.44 1.32 2.16 3.12 2.16 5.4 0 2.04-.72 3.78-2.16 5.22-1.44 1.32-3.24 1.98-5.4 1.98h-28.437Zm53.817 1.8c-2.4 0-4.44-.9-6.12-2.7-1.56-1.8-2.16-3.9-1.8-6.3l7.56-57.78c.36-2.64 1.44-4.74 3.24-6.3 1.8-1.68 3.96-2.52 6.48-2.52 5.16 0 8.52 2.22 10.08 6.66l12.24 35.28c.6 1.2 1.2 1.8 1.8 1.8.84 0 1.44-.6 1.8-1.8l12.24-35.28c1.56-4.44 4.86-6.66 9.9-6.66 2.76 0 4.98.84 6.66 2.52 1.8 1.56 2.88 3.66 3.24 6.3l7.56 57.78c.36 2.4-.3 4.5-1.98 6.3-1.56 1.8-3.54 2.7-5.94 2.7-2.16 0-4.02-.66-5.58-1.98-1.44-1.44-2.28-3.24-2.52-5.4l-2.7-37.62c-.12-1.44-.6-2.16-1.44-2.16s-1.44.6-1.8 1.8l-10.44 29.34c-1.68 4.44-4.68 6.66-9 6.66-1.68 0-3.36-.6-5.04-1.8-1.56-1.2-2.82-2.76-3.78-4.68l-10.44-29.16c-.36-1.08-.96-1.62-1.8-1.62-.72 0-1.2.72-1.44 2.16l-2.88 37.08c-.12 2.16-.96 3.96-2.52 5.4-1.56 1.32-3.42 1.98-5.58 1.98Zm90.99 0c-1.92 0-3.78-.72-5.58-2.16-1.68-1.44-2.52-3.3-2.52-5.58 0-.96.18-1.98.54-3.06l22.68-59.22c.84-2.16 2.22-3.78 4.14-4.86 1.92-1.08 3.9-1.62 5.94-1.62 2.16 0 4.2.54 6.12 1.62 2.04 1.08 3.48 2.7 4.32 4.86l24.3 58.86c.24.48.36.96.36 1.44v1.44c0 2.52-.84 4.5-2.52 5.94-1.68 1.44-3.54 2.16-5.58 2.16-1.44 0-2.88-.42-4.32-1.26-1.32-.72-2.28-1.92-2.88-3.6l-5.22-14.04c-.12-.72-.6-1.08-1.44-1.08h-24.3c-.84 0-1.38.36-1.62 1.08l-5.04 14.22c-.84 1.56-1.92 2.76-3.24 3.6-1.32.84-2.7 1.26-4.14 1.26Zm20.52-34.2h10.62c.72 0 1.26-.24 1.62-.72.48-.6.6-1.32.36-2.16l-4.68-12.78c-.72-1.92-1.62-2.88-2.7-2.88s-1.98 1.02-2.7 3.06l-4.5 12.78c-.24.72-.18 1.38.18 1.98.36.48.96.72 1.8.72Zm-7.92-57.06 15.3-13.32c1.8-1.44 3.66-2.28 5.58-2.52 1.92 0 3.54.72 4.86 2.16 1.44 1.32 2.16 3 2.16 5.04 0 2.64-1.02 4.5-3.06 5.58l-18.9 10.62c-.36.12-.78.3-1.26.54-.36.24-.84.36-1.44.36-3.36 0-5.04-1.5-5.04-4.5 0-1.56.6-2.88 1.8-3.96Zm77.36 91.26c-2.28 0-4.2-.66-5.76-1.98-1.56-1.44-2.34-3.3-2.34-5.58v-46.98c0-3.6-1.8-5.4-5.4-5.4h-8.82c-2.16 0-3.96-.66-5.4-1.98-1.32-1.44-1.98-3.24-1.98-5.4s.66-3.9 1.98-5.22c1.44-1.44 3.24-2.16 5.4-2.16h44.46c2.28 0 4.08.72 5.4 2.16 1.44 1.32 2.16 3.06 2.16 5.22 0 2.16-.72 3.96-2.16 5.4-1.32 1.32-3.12 1.98-5.4 1.98h-8.64c-3.6 0-5.4 1.8-5.4 5.4v46.98c0 2.28-.78 4.14-2.34 5.58-1.44 1.32-3.36 1.98-5.76 1.98Zm48.53 0c-2.28 0-4.2-.72-5.76-2.16-1.56-1.44-2.34-3.24-2.34-5.4v-60.3c0-2.28.78-4.14 2.34-5.58 1.56-1.44 3.48-2.16 5.76-2.16 2.4 0 4.32.72 5.76 2.16 1.56 1.44 2.34 3.3 2.34 5.58v60.3c0 2.28-.78 4.14-2.34 5.58-1.44 1.32-3.36 1.98-5.76 1.98Zm84.68-6.66c-2.28 1.8-5.76 3.36-10.44 4.68-4.68 1.32-9.24 1.98-13.68 1.98-7.44 0-14.1-1.62-19.98-4.86-5.88-3.36-10.5-7.98-13.86-13.86-3.36-5.88-5.04-12.54-5.04-19.98 0-7.8 1.62-14.52 4.86-20.16 3.36-5.64 7.98-9.96 13.86-12.96 5.88-3.12 12.72-4.68 20.52-4.68 3.24 0 6.48.3 9.72.9 3.36.6 6.42 1.56 9.18 2.88 1.44.72 2.46 1.68 3.06 2.88a6.35 6.35 0 0 1 1.08 3.6c0 1.92-.72 3.72-2.16 5.4-1.32 1.56-3.12 2.34-5.4 2.34-.96 0-1.98-.18-3.06-.54-2.16-.84-4.5-1.5-7.02-1.98-2.52-.6-4.74-.9-6.66-.9-6.24 0-11.46 2.1-15.66 6.3-4.08 4.2-6.12 9.84-6.12 16.92 0 7.56 2.1 13.5 6.3 17.82 4.32 4.32 9.84 6.48 16.56 6.48 2.76 0 5.7-.48 8.82-1.44s5.64-2.16 7.56-3.6a7.89 7.89 0 0 1 4.32-1.26c2.04 0 3.66.72 4.86 2.16 1.32 1.32 1.98 3 1.98 5.04 0 2.64-1.2 4.92-3.6 6.84Zm16.25 6.66c-1.92 0-3.78-.72-5.58-2.16-1.68-1.44-2.52-3.3-2.52-5.58 0-.96.18-1.98.54-3.06l22.68-59.22c.84-2.16 2.22-3.78 4.14-4.86 1.92-1.08 3.9-1.62 5.94-1.62 2.16 0 4.2.54 6.12 1.62 2.04 1.08 3.48 2.7 4.32 4.86l24.3 58.86c.24.48.36.96.36 1.44v1.44c0 2.52-.84 4.5-2.52 5.94-1.68 1.44-3.54 2.16-5.58 2.16-1.44 0-2.88-.42-4.32-1.26-1.32-.72-2.28-1.92-2.88-3.6l-5.22-14.04c-.12-.72-.6-1.08-1.44-1.08h-24.3c-.84 0-1.38.36-1.62 1.08l-5.04 14.22c-.84 1.56-1.92 2.76-3.24 3.6-1.32.84-2.7 1.26-4.14 1.26Zm20.52-34.2h10.62c.72 0 1.26-.24 1.62-.72.48-.6.6-1.32.36-2.16l-4.68-12.78c-.72-1.92-1.62-2.88-2.7-2.88s-1.98 1.02-2.7 3.06l-4.5 12.78c-.24.72-.18 1.38.18 1.98.36.48.96.72 1.8.72Zm89.34 34.2c-1.92 0-3.78-.72-5.58-2.16-1.68-1.44-2.52-3.3-2.52-5.58 0-.96.18-1.98.54-3.06l22.68-59.22c.84-2.16 2.22-3.78 4.14-4.86 1.92-1.08 3.9-1.62 5.94-1.62 2.16 0 4.2.54 6.12 1.62 2.04 1.08 3.48 2.7 4.32 4.86l24.3 58.86c.24.48.36.96.36 1.44v1.44c0 2.52-.84 4.5-2.52 5.94-1.68 1.44-3.54 2.16-5.58 2.16-1.44 0-2.88-.42-4.32-1.26-1.32-.72-2.28-1.92-2.88-3.6l-5.22-14.04c-.12-.72-.6-1.08-1.44-1.08h-24.3c-.84 0-1.38.36-1.62 1.08l-5.04 14.22c-.84 1.56-1.92 2.76-3.24 3.6-1.32.84-2.7 1.26-4.14 1.26Zm20.52-34.2h10.62c.72 0 1.26-.24 1.62-.72.48-.6.6-1.32.36-2.16l-4.68-12.78c-.72-1.92-1.62-2.88-2.7-2.88s-1.98 1.02-2.7 3.06l-4.5 12.78c-.24.72-.18 1.38.18 1.98.36.48.96.72 1.8.72Zm110.04 34.2c-2.28 0-4.2-.66-5.76-1.98-1.56-1.44-2.34-3.3-2.34-5.58v-46.98c0-3.6-1.8-5.4-5.4-5.4h-8.82c-2.16 0-3.96-.66-5.4-1.98-1.32-1.44-1.98-3.24-1.98-5.4s.66-3.9 1.98-5.22c1.44-1.44 3.24-2.16 5.4-2.16h44.46c2.28 0 4.08.72 5.4 2.16 1.44 1.32 2.16 3.06 2.16 5.22 0 2.16-.72 3.96-2.16 5.4-1.32 1.32-3.12 1.98-5.4 1.98h-8.64c-3.6 0-5.4 1.8-5.4 5.4v46.98c0 2.28-.78 4.14-2.34 5.58-1.44 1.32-3.36 1.98-5.76 1.98Zm86.33-67.86c0-2.16.78-3.96 2.34-5.4 1.56-1.56 3.48-2.34 5.76-2.34s4.2.72 5.76 2.16c1.56 1.44 2.34 3.3 2.34 5.58V559c0 8.76-2.88 15.78-8.64 21.06-5.76 5.16-13.44 7.74-23.04 7.74-9.48 0-17.1-2.58-22.86-7.74-5.64-5.28-8.46-12.3-8.46-21.06v-39.06c0-2.28.72-4.08 2.16-5.4 1.56-1.44 3.54-2.16 5.94-2.16 2.4 0 4.32.72 5.76 2.16 1.56 1.32 2.34 3.12 2.34 5.4V559c0 4.2 1.38 7.62 4.14 10.26 2.76 2.52 6.42 3.78 10.98 3.78 4.68 0 8.4-1.26 11.16-3.78 2.88-2.64 4.32-6.06 4.32-10.26v-39.06Zm76.61 67.86c-2.4 0-4.38-.66-5.94-1.98-1.44-1.44-2.16-3.3-2.16-5.58v-58.5c0-3.12.96-5.46 2.88-7.02 1.92-1.68 4.08-2.52 6.48-2.52 1.68 0 3.3.42 4.86 1.26 1.56.72 2.88 1.92 3.96 3.6l25.92 39.06c.48.84 1.2 1.26 2.16 1.26 1.2 0 1.8-.72 1.8-2.16l-1.26-35.46c-.12-2.4.6-4.26 2.16-5.58 1.56-1.32 3.54-1.98 5.94-1.98 2.4 0 4.32.66 5.76 1.98 1.56 1.32 2.34 3.18 2.34 5.58v58.32c0 3-.96 5.34-2.88 7.02-1.92 1.68-4.08 2.52-6.48 2.52-1.56 0-3.12-.42-4.68-1.26-1.56-.72-2.88-1.92-3.96-3.6l-25.74-40.32c-.48-.84-1.2-1.26-2.16-1.26-1.32 0-1.98.78-1.98 2.34l1.08 36.72c.12 2.28-.6 4.14-2.16 5.58-1.56 1.32-3.54 1.98-5.94 1.98Zm80.18 0c-2.28 0-4.2-.72-5.76-2.16-1.56-1.44-2.34-3.24-2.34-5.4v-60.3c0-2.28.78-4.14 2.34-5.58 1.56-1.44 3.48-2.16 5.76-2.16 2.4 0 4.32.72 5.76 2.16 1.56 1.44 2.34 3.3 2.34 5.58v60.3c0 2.28-.78 4.14-2.34 5.58-1.44 1.32-3.36 1.98-5.76 1.98Zm53.18 0c-2.04 0-4.02-.54-5.94-1.62-1.92-1.08-3.3-2.7-4.14-4.86L1865.59 523c-.36-1.08-.54-2.1-.54-3.06 0-2.28.84-4.14 2.52-5.58 1.68-1.44 3.6-2.16 5.76-2.16 1.44 0 2.88.42 4.32 1.26 1.56.72 2.58 1.92 3.06 3.6l14.58 43.02c.72 2.04 1.62 3.06 2.7 3.06s1.98-.96 2.7-2.88l15.48-43.02c.6-1.68 1.56-2.88 2.88-3.6 1.44-.84 2.88-1.26 4.32-1.26 2.64 0 4.68.9 6.12 2.7 1.44 1.8 2.16 3.72 2.16 5.76v1.26c0 .36-.12.78-.36 1.26l-23.4 57.96c-.84 2.16-2.28 3.78-4.32 4.86-1.92 1.08-3.96 1.62-6.12 1.62Zm57.63-1.8c-3.48 0-6.3-1.08-8.46-3.24-2.16-2.16-3.24-4.98-3.24-8.46v-50.04c0-3.48 1.02-6.18 3.06-8.1 2.04-2.04 4.74-3.06 8.1-3.06h27.18c5.04 0 7.56 2.4 7.56 7.2 0 2.04-.72 3.78-2.16 5.22-1.44 1.32-3.24 1.98-5.4 1.98h-18.54c-2.4 0-3.6 1.2-3.6 3.6v7.2c0 2.4 1.2 3.6 3.6 3.6h15.84c2.4 0 4.26.66 5.58 1.98 1.32 1.32 1.98 3.06 1.98 5.22 0 1.92-.78 3.6-2.34 5.04-1.44 1.44-3.18 2.16-5.22 2.16h-15.84c-2.4 0-3.6 1.2-3.6 3.6v7.92c0 2.4 1.2 3.6 3.6 3.6h20.34c2.28 0 4.08.66 5.4 1.98 1.44 1.32 2.16 3.12 2.16 5.4 0 2.04-.72 3.78-2.16 5.22-1.44 1.32-3.24 1.98-5.4 1.98h-28.44Zm60.29 0c-3.48 0-6.3-1.08-8.46-3.24-2.16-2.16-3.24-4.98-3.24-8.46v-54.36c0-2.28.78-4.14 2.34-5.58 1.56-1.44 3.54-2.16 5.94-2.16 2.28 0 4.14.72 5.58 2.16 1.56 1.44 2.34 3.3 2.34 5.58v45.9c0 3.6 1.8 5.4 5.4 5.4h16.02c2.16 0 3.9.72 5.22 2.16 1.44 1.32 2.16 3.06 2.16 5.22 0 2.16-.72 3.96-2.16 5.4-1.32 1.32-3.06 1.98-5.22 1.98h-25.92Z"/><path fill="url(#a)" d="M406.477 456.418c-29.053 0-51.726-8.26-68.018-24.78-16.292-16.634-24.438-40.788-24.438-72.461 0-16.976 1.993-33.382 5.981-49.219 3.988-15.837 9.912-30.42 17.773-43.75 7.862-13.444 17.66-25.179 29.395-35.205 11.849-10.026 25.521-17.83 41.016-23.413 15.494-5.583 32.869-8.374 52.124-8.374 12.874 0 24.951 1.367 36.23 4.101 11.279 2.735 22.559 7.007 33.838 12.818l-19.653 42.895c-8.317-4.557-16.748-8.203-25.293-10.937-8.431-2.735-17.603-4.102-27.515-4.102-15.381 0-28.768 3.304-40.161 9.912-11.279 6.494-20.679 15.153-28.198 25.977-7.52 10.71-13.16 22.615-16.919 35.718-3.646 13.102-5.469 26.261-5.469 39.477 0 12.305 1.709 22.73 5.127 31.275 3.418 8.431 8.83 14.811 16.235 19.14 7.52 4.33 17.204 6.494 29.053 6.494 5.811 0 10.88-.398 15.21-1.196a306.117 306.117 0 0 0 13.843-2.905l11.279-51.099h-45.63l9.57-44.092h96.216l-27.685 130.225c-11.394 3.874-23.47 7.121-36.231 9.741-12.76 2.507-28.654 3.76-47.68 3.76Zm224.492 0c-20.28 0-37.313-3.931-51.099-11.792-13.672-7.861-24.04-18.913-31.103-33.154-7.064-14.356-10.596-31.104-10.596-50.244 0-12.989 1.139-25.977 3.418-38.965 2.392-12.989 5.924-25.521 10.596-37.598 4.785-12.077 10.766-23.299 17.944-33.667 7.292-10.368 15.836-19.425 25.635-27.173 9.798-7.747 20.906-13.786 33.325-18.115 12.418-4.329 26.204-6.494 41.357-6.494 30.306 0 53.093 8.545 68.36 25.635 15.381 16.975 23.071 39.591 23.071 67.846 0 13.558-1.139 27.002-3.418 40.332-2.165 13.33-5.583 26.091-10.254 38.282-4.557 12.19-10.425 23.47-17.602 33.837a125.707 125.707 0 0 1-25.123 27.002c-9.684 7.634-20.735 13.615-33.154 17.945-12.305 4.215-26.09 6.323-41.357 6.323Zm3.76-44.434c6.835 0 13.387-1.253 19.653-3.759 6.266-2.507 12.134-6.096 17.602-10.767 5.469-4.785 10.425-10.596 14.869-17.432 4.557-6.95 8.431-14.754 11.621-23.413 3.19-8.773 5.639-18.4 7.348-28.882 1.823-10.481 2.735-21.704 2.735-33.667 0-15.38-3.589-27.685-10.767-36.914-7.064-9.228-17.602-13.842-31.616-13.842-7.178 0-14.071 1.424-20.679 4.272-6.494 2.848-12.532 6.893-18.115 12.134-5.469 5.241-10.425 11.45-14.868 18.628-4.444 7.178-8.26 15.153-11.45 23.926-3.191 8.772-5.64 18.115-7.349 28.027-1.595 9.912-2.393 20.223-2.393 30.933 0 11.051 1.709 20.393 5.127 28.027 3.418 7.519 8.374 13.216 14.868 17.09 6.495 3.759 14.299 5.639 23.414 5.639ZM874.191 453 917.6 247.238h-60.157l9.4-44.092h172.607l-9.4 44.092h-60.326L926.315 453h-52.124Zm213.899 3.418c-14.93 0-28.09-2.677-39.48-8.032-11.28-5.469-20.11-13.672-26.49-24.61-6.38-10.937-9.57-24.666-9.57-41.186 0-15.951 2.28-31.332 6.84-46.143 4.55-14.925 11.33-28.255 20.33-39.99 9.12-11.735 20.28-21.02 33.5-27.856 13.33-6.836 28.71-10.254 46.14-10.254 21.42 0 37.43 4.899 48.02 14.697 10.71 9.684 16.07 22.16 16.07 37.427 0 10.026-2.28 19.14-6.84 27.343-4.44 8.204-11.22 15.267-20.33 21.192-9.12 5.81-20.57 10.311-34.35 13.501-13.79 3.076-29.97 4.614-48.54 4.614h-8.72a102.13 102.13 0 0 1-.34 3.589v3.418c0 10.254 2.97 18.4 8.89 24.438 5.92 6.039 14.3 9.058 25.12 9.058 10.03 0 19.14-1.139 27.35-3.418 8.2-2.279 17.88-6.038 29.05-11.279v38.794c-10.03 4.899-20.22 8.602-30.59 11.108-10.37 2.393-22.39 3.589-36.06 3.589Zm-17.78-113.989h7.69c13.22 0 23.93-1.424 32.13-4.273 8.32-2.848 14.36-6.608 18.12-11.279 3.87-4.671 5.81-9.741 5.81-15.21 0-5.469-1.6-9.513-4.79-12.134-3.07-2.734-7.46-4.101-13.15-4.101-6.38 0-12.71 1.993-18.97 5.981-6.27 3.988-11.8 9.513-16.58 16.577-4.79 7.064-8.2 15.21-10.26 24.439Zm173.91 113.989c-9.23 0-17.94-2.279-26.15-6.836-8.2-4.557-14.92-11.906-20.16-22.046-5.13-10.14-7.69-23.584-7.69-40.332 0-12.532 1.31-24.951 3.93-37.256 2.73-12.304 6.61-23.926 11.62-34.863 5.13-11.051 11.28-20.793 18.46-29.224 7.29-8.545 15.49-15.267 24.6-20.166 9.23-4.899 19.2-7.348 29.91-7.348 8.09 0 15.16 1.196 21.19 3.589 6.04 2.278 11.23 5.525 15.56 9.741 4.32 4.215 7.86 9.114 10.59 14.697h1.37l9.74-24.438h39.65L1336.16 453h-38.45l2.39-24.78h-1.36c-4.56 5.582-9.52 10.481-14.87 14.697-5.36 4.215-11.28 7.52-17.77 9.912-6.5 2.393-13.79 3.589-21.88 3.589Zm20.17-41.528c7.06 0 13.61-2.735 19.65-8.203 6.04-5.583 11.22-12.818 15.55-21.705 4.33-8.886 7.41-18.286 9.23-28.198.91-4.557 1.54-9.114 1.88-13.672.46-4.671.68-9.684.68-15.039 0-8.089-2.16-14.754-6.49-19.995-4.22-5.355-10.03-8.032-17.43-8.032-5.02 0-9.8 1.652-14.36 4.956-4.44 3.19-8.54 7.633-12.3 13.33-3.76 5.583-7.07 12.02-9.91 19.312-2.74 7.177-4.85 14.811-6.33 22.9a134.577 134.577 0 0 0-2.22 24.268c0 9.912 1.94 17.431 5.81 22.558 3.88 5.013 9.29 7.52 16.24 7.52Zm187.57 41.528c-13.21 0-25.23-2.336-36.05-7.007-10.71-4.785-19.26-12.305-25.64-22.558-6.27-10.368-9.4-23.926-9.4-40.674 0-13.786 1.43-27.002 4.27-39.649 2.85-12.646 7.07-24.324 12.65-35.034 5.58-10.71 12.48-19.995 20.68-27.856 8.2-7.976 17.6-14.185 28.2-18.628 10.59-4.444 22.38-6.665 35.37-6.665 11.4 0 21.59 1.082 30.59 3.247 9.12 2.164 17.61 5.184 25.47 9.057l-15.72 39.136c-6.16-2.62-12.2-4.899-18.12-6.836-5.92-1.937-12.65-2.905-20.17-2.905-8.09 0-15.32 2.336-21.7 7.007-6.27 4.671-11.62 10.937-16.06 18.799-4.33 7.861-7.64 16.691-9.92 26.489-2.28 9.684-3.41 19.539-3.41 29.565 0 7.178 1.13 13.216 3.41 18.115 2.4 4.9 5.76 8.602 10.09 11.109 4.44 2.506 9.74 3.76 15.89 3.76 8.66 0 16.69-1.311 24.1-3.931 7.4-2.734 15.04-6.095 22.9-10.083v42.041c-7.98 4.215-16.58 7.52-25.81 9.912-9.23 2.393-19.77 3.589-31.62 3.589ZM1523.5 453l56.4-265.918h51.44l-9.91 46.143c-1.03 5.24-2.45 11.222-4.27 17.944a572.06 572.06 0 0 1-5.47 19.653c-1.94 6.38-3.71 11.906-5.3 16.577h1.37c4.67-5.81 9.68-10.88 15.03-15.21 5.47-4.443 11.4-7.861 17.78-10.253 6.38-2.393 13.33-3.589 20.85-3.589 10.94 0 20.05 2.278 27.34 6.836 7.41 4.443 12.93 10.766 16.58 18.969 3.64 8.203 5.47 17.945 5.47 29.224 0 4.215-.34 8.944-1.03 14.185-.68 5.24-1.65 10.766-2.9 16.577L1684.15 453h-51.44l23.41-111.597c.91-3.873 1.6-7.519 2.05-10.937.46-3.418.68-6.551.68-9.4 0-7.177-1.53-12.475-4.61-15.893-3.08-3.418-7.69-5.127-13.84-5.127-7.75 0-14.76 3.361-21.02 10.083-6.27 6.608-11.74 15.495-16.41 26.66-4.56 11.165-8.32 23.527-11.28 37.085L1574.94 453h-51.44Zm278.67 3.418c-14.93 0-28.08-2.677-39.48-8.032-11.28-5.469-20.11-13.672-26.49-24.61-6.38-10.937-9.57-24.666-9.57-41.186 0-15.951 2.28-31.332 6.84-46.143 4.56-14.925 11.34-28.255 20.34-39.99 9.11-11.735 20.28-21.02 33.49-27.856 13.33-6.836 28.71-10.254 46.14-10.254 21.42 0 37.43 4.899 48.03 14.697 10.71 9.684 16.06 22.16 16.06 37.427 0 10.026-2.28 19.14-6.83 27.343-4.45 8.204-11.23 15.267-20.34 21.192-9.12 5.81-20.57 10.311-34.35 13.501-13.79 3.076-29.97 4.614-48.54 4.614h-8.71a193.3 193.3 0 0 1-.34 3.589v3.418c0 10.254 2.96 18.4 8.88 24.438 5.93 6.039 14.3 9.058 25.12 9.058 10.03 0 19.14-1.139 27.35-3.418 8.2-2.279 17.88-6.038 29.05-11.279v38.794c-10.03 4.899-20.22 8.602-30.59 11.108-10.37 2.393-22.39 3.589-36.06 3.589Zm-17.77-113.989h7.69c13.21 0 23.92-1.424 32.13-4.273 8.31-2.848 14.35-6.608 18.11-11.279 3.87-4.671 5.81-9.741 5.81-15.21 0-5.469-1.59-9.513-4.78-12.134-3.08-2.734-7.47-4.101-13.16-4.101-6.38 0-12.71 1.993-18.97 5.981-6.27 3.988-11.79 9.513-16.58 16.577-4.78 7.064-8.2 15.21-10.25 24.439ZM1895.24 453l40.5-191.064h39.31l-3.59 35.376h1.88c5.13-8.09 10.71-15.04 16.75-20.85 6.04-5.811 12.59-10.254 19.65-13.33 7.07-3.19 14.76-4.785 23.07-4.785 2.74 0 5.64.171 8.72.512 3.19.342 5.75.798 7.69 1.368l-11.28 49.56c-1.82-.683-4.27-1.31-7.35-1.88-2.96-.569-6.21-.854-9.74-.854-6.38 0-12.47 1.31-18.28 3.93-5.82 2.507-11.17 6.267-16.07 11.28-4.9 5.013-9.23 11.336-12.99 18.969-3.64 7.52-6.55 16.293-8.71 26.319L1946.68 453h-51.44Z"/><path fill="#000" d="M351.48 154.8c-7.08 0-13.5-1.68-19.26-5.04-5.76-3.36-10.32-7.92-13.68-13.68-3.36-5.76-5.04-12.3-5.04-19.62s1.62-13.8 4.86-19.44c3.36-5.76 7.98-10.32 13.86-13.68 5.88-3.36 12.54-5.04 19.98-5.04 5.28 0 10.02.66 14.22 1.98 4.32 1.32 8.28 3.42 11.88 6.3 1.92 1.56 2.88 3.6 2.88 6.12 0 2.04-.72 3.78-2.16 5.22-1.44 1.44-3.18 2.16-5.22 2.16-1.32 0-2.82-.54-4.5-1.62-2.64-1.68-5.34-3-8.1-3.96-2.76-1.08-5.7-1.62-8.82-1.62-6.6 0-12.06 2.22-16.38 6.66-4.2 4.32-6.3 9.96-6.3 16.92 0 7.2 2.04 12.96 6.12 17.28s9.3 6.48 15.66 6.48c5.88 0 10.68-1.14 14.4-3.42 3.84-2.4 5.76-5.46 5.76-9.18 0-.96-.42-1.44-1.26-1.44h-12.06c-2.28 0-4.14-.66-5.58-1.98-1.32-1.32-1.98-3.06-1.98-5.22 0-2.04.66-3.72 1.98-5.04 1.44-1.32 3.3-1.98 5.58-1.98h19.8c3.24 0 5.58.78 7.02 2.34 1.44 1.44 2.16 3.9 2.16 7.38 0 10.08-3.3 18.12-9.9 24.12-6.48 6-15.12 9-25.92 9Zm56.333 0c-2.16 0-4.02-.72-5.58-2.16-1.56-1.56-2.34-3.36-2.34-5.4V91.8c0-3.48 1.08-6.3 3.24-8.46 2.28-2.16 5.28-3.24 9-3.24h18c7.32 0 13.2 2.16 17.64 6.48 4.56 4.32 6.84 9.72 6.84 16.2 0 3.84-1.02 7.44-3.06 10.8-2.04 3.36-4.98 6.06-8.82 8.1 1.68.84 3.18 1.98 4.5 3.42 1.44 1.44 2.58 3.18 3.42 5.22l5.94 13.68c.6 1.44.9 2.64.9 3.6 0 2.16-.84 3.96-2.52 5.4-1.68 1.32-3.54 1.98-5.58 1.98-1.32 0-2.64-.36-3.96-1.08-1.2-.72-2.16-1.86-2.88-3.42l-6.84-16.38c-1.2-2.88-2.82-4.92-4.86-6.12-1.92-1.32-4.2-1.98-6.84-1.98h-4.68c-2.4 0-3.6 1.2-3.6 3.6v17.64c0 2.04-.78 3.84-2.34 5.4-1.56 1.44-3.42 2.16-5.58 2.16Zm10.62-42.3h10.98c3 0 5.34-.84 7.02-2.52 1.8-1.68 2.7-3.84 2.7-6.48 0-2.76-.9-4.92-2.7-6.48-1.68-1.68-4.02-2.52-7.02-2.52h-10.98c-1.8 0-2.7.9-2.7 2.7v12.6c0 1.8.9 2.7 2.7 2.7Zm96.639-25.56c0-2.16.78-3.96 2.34-5.4 1.56-1.56 3.48-2.34 5.76-2.34s4.2.72 5.76 2.16c1.56 1.44 2.34 3.3 2.34 5.58V126c0 8.76-2.88 15.78-8.64 21.06-5.76 5.16-13.44 7.74-23.04 7.74-9.48 0-17.1-2.58-22.86-7.74-5.64-5.28-8.46-12.3-8.46-21.06V86.94c0-2.28.72-4.08 2.16-5.4 1.56-1.44 3.54-2.16 5.94-2.16 2.4 0 4.32.72 5.76 2.16 1.56 1.32 2.34 3.12 2.34 5.4V126c0 4.2 1.38 7.62 4.14 10.26 2.76 2.52 6.42 3.78 10.98 3.78 4.68 0 8.4-1.26 11.16-3.78 2.88-2.64 4.32-6.06 4.32-10.26V86.94Zm40.577 67.86c-2.16 0-4.08-.72-5.76-2.16-1.56-1.56-2.34-3.36-2.34-5.4V91.8c0-3.48 1.08-6.3 3.24-8.46 2.16-2.16 4.98-3.24 8.46-3.24h18.18c7.2 0 13.14 2.04 17.82 6.12 4.8 4.08 7.2 9.48 7.2 16.2 0 7.32-2.34 13.26-7.02 17.82-4.68 4.56-10.62 6.84-17.82 6.84h-10.62c-2.4 0-3.6 1.2-3.6 3.6l.36 16.56c0 2.04-.84 3.84-2.52 5.4-1.56 1.44-3.42 2.16-5.58 2.16Zm10.44-42.12h9.54c7.44 0 11.16-3.06 11.16-9.18 0-6-3.48-9-10.44-9h-10.26c-1.8 0-2.7.9-2.7 2.7v12.78c0 1.8.9 2.7 2.7 2.7Zm82.98 42.12c-7.08 0-13.5-1.68-19.26-5.04-5.64-3.48-10.14-8.16-13.5-14.04-3.24-5.88-4.86-12.36-4.86-19.44 0-7.32 1.62-13.8 4.86-19.44 3.36-5.76 7.86-10.26 13.5-13.5 5.64-3.36 12.06-5.04 19.26-5.04 7.2 0 13.56 1.68 19.08 5.04 5.64 3.24 10.02 7.74 13.14 13.5 3.24 5.64 4.86 12.12 4.86 19.44 0 7.2-1.62 13.74-4.86 19.62-3.24 5.76-7.68 10.38-13.32 13.86-5.52 3.36-11.82 5.04-18.9 5.04Zm0-14.4c6.12 0 11.1-2.28 14.94-6.84 3.96-4.56 5.94-10.32 5.94-17.28 0-6.96-1.98-12.66-5.94-17.1-3.84-4.44-8.82-6.66-14.94-6.66-6.24 0-11.4 2.22-15.48 6.66-3.96 4.44-5.94 10.14-5.94 17.1 0 6.96 1.98 12.72 5.94 17.28 4.08 4.56 9.24 6.84 15.48 6.84Zm97.927 12.6c-3.72 0-6.72-1.02-9-3.06-2.16-2.16-3.24-4.98-3.24-8.46V91.26c0-3.48 1.02-6.18 3.06-8.1 2.04-2.04 4.74-3.06 8.1-3.06h16.38c7.92 0 14.64 1.62 20.16 4.86 5.52 3.12 9.72 7.44 12.6 12.96 3 5.4 4.5 11.58 4.5 18.54 0 7.2-1.5 13.56-4.5 19.08-3 5.52-7.08 9.84-12.24 12.96-5.16 3-10.92 4.5-17.28 4.5h-18.54Zm8.46-14.4h7.02c6.84 0 12.06-1.92 15.66-5.76 3.6-3.96 5.34-9.42 5.22-16.38-.12-7.2-1.98-12.66-5.58-16.38-3.6-3.72-8.76-5.58-15.48-5.58h-6.84c-3 0-4.5 1.5-4.5 4.5v35.1c0 3 1.5 4.5 4.5 4.5ZM823.8 153c-3.48 0-6.3-1.08-8.46-3.24-2.16-2.16-3.24-4.98-3.24-8.46V91.26c0-3.48 1.02-6.18 3.06-8.1 2.04-2.04 4.74-3.06 8.1-3.06h27.18c5.04 0 7.56 2.4 7.56 7.2 0 2.04-.72 3.78-2.16 5.22-1.44 1.32-3.24 1.98-5.4 1.98H831.9c-2.4 0-3.6 1.2-3.6 3.6v7.2c0 2.4 1.2 3.6 3.6 3.6h15.84c2.4 0 4.26.66 5.58 1.98 1.32 1.32 1.98 3.06 1.98 5.22 0 1.92-.78 3.6-2.34 5.04-1.44 1.44-3.18 2.16-5.22 2.16H831.9c-2.4 0-3.6 1.2-3.6 3.6v7.92c0 2.4 1.2 3.6 3.6 3.6h20.34c2.28 0 4.08.66 5.4 1.98 1.44 1.32 2.16 3.12 2.16 5.4 0 2.04-.72 3.78-2.16 5.22-1.44 1.32-3.24 1.98-5.4 1.98H823.8Zm96.328 0c-3.48 0-6.3-1.08-8.46-3.24-2.16-2.16-3.24-4.98-3.24-8.46V91.26c0-3.48 1.02-6.18 3.06-8.1 2.04-2.04 4.74-3.06 8.1-3.06h27.18c5.04 0 7.56 2.4 7.56 7.2 0 2.04-.72 3.78-2.16 5.22-1.44 1.32-3.24 1.98-5.4 1.98h-18.54c-2.4 0-3.6 1.2-3.6 3.6v7.2c0 2.4 1.2 3.6 3.6 3.6h15.84c2.4 0 4.26.66 5.58 1.98 1.32 1.32 1.98 3.06 1.98 5.22 0 1.92-.78 3.6-2.34 5.04-1.44 1.44-3.18 2.16-5.22 2.16h-15.84c-2.4 0-3.6 1.2-3.6 3.6v7.92c0 2.4 1.2 3.6 3.6 3.6h20.34c2.28 0 4.08.66 5.4 1.98 1.44 1.32 2.16 3.12 2.16 5.4 0 2.04-.72 3.78-2.16 5.22-1.44 1.32-3.24 1.98-5.4 1.98h-28.44Zm72.893 1.8c-5.52 0-10.68-.9-15.48-2.7-4.8-1.92-8.58-4.44-11.34-7.56-1.32-1.44-1.98-3.12-1.98-5.04 0-2.04.78-3.84 2.34-5.4 1.56-1.56 3.42-2.34 5.58-2.34 2.04 0 3.78.72 5.22 2.16 2.04 1.92 4.62 3.42 7.74 4.5s6.18 1.62 9.18 1.62c3.12 0 5.819-.66 8.099-1.98 2.28-1.44 3.42-3.66 3.42-6.66 0-2.52-1.08-4.44-3.24-5.76-2.04-1.44-5.519-2.58-10.439-3.42-8.76-1.44-15.36-3.84-19.8-7.2-4.44-3.48-6.66-8.34-6.66-14.58 0-6.72 2.58-12.06 7.74-16.02 5.16-4.08 11.94-6.12 20.34-6.12 8.639 0 15.539 2.22 20.699 6.66 2.04 1.68 3.06 3.66 3.06 5.94 0 1.92-.78 3.6-2.34 5.04-1.44 1.32-3.18 1.98-5.22 1.98-1.56 0-3-.42-4.32-1.26-4.56-2.88-9.359-4.32-14.399-4.32-3 0-5.52.6-7.56 1.8-2.04 1.2-3.06 3-3.06 5.4 0 2.52 1.56 4.5 4.68 5.94 3.24 1.44 7.92 2.76 14.04 3.96 3.359.6 6.659 1.68 9.899 3.24 3.36 1.44 6.12 3.66 8.28 6.66 2.28 3 3.42 7.08 3.42 12.24 0 6.84-2.64 12.42-7.92 16.74-5.16 4.32-11.82 6.48-19.979 6.48Zm63.959 0c-2.28 0-4.2-.66-5.76-1.98-1.56-1.44-2.34-3.3-2.34-5.58v-46.98c0-3.6-1.8-5.4-5.4-5.4h-8.82c-2.16 0-3.96-.66-5.4-1.98-1.32-1.44-1.98-3.24-1.98-5.4s.66-3.9 1.98-5.22c1.44-1.44 3.24-2.16 5.4-2.16h44.46c2.28 0 4.08.72 5.4 2.16 1.44 1.32 2.16 3.06 2.16 5.22 0 2.16-.72 3.96-2.16 5.4-1.32 1.32-3.12 1.98-5.4 1.98h-8.64c-3.6 0-5.4 1.8-5.4 5.4v46.98c0 2.28-.78 4.14-2.34 5.58-1.44 1.32-3.36 1.98-5.76 1.98Zm86.33-67.86c0-2.16.78-3.96 2.34-5.4 1.56-1.56 3.48-2.34 5.76-2.34s4.2.72 5.76 2.16c1.56 1.44 2.34 3.3 2.34 5.58V126c0 8.76-2.88 15.78-8.64 21.06-5.76 5.16-13.44 7.74-23.04 7.74-9.48 0-17.1-2.58-22.86-7.74-5.64-5.28-8.46-12.3-8.46-21.06V86.94c0-2.28.72-4.08 2.16-5.4 1.56-1.44 3.54-2.16 5.94-2.16 2.4 0 4.32.72 5.76 2.16 1.56 1.32 2.34 3.12 2.34 5.4V126c0 4.2 1.38 7.62 4.14 10.26 2.76 2.52 6.42 3.78 10.98 3.78 4.68 0 8.4-1.26 11.16-3.78 2.88-2.64 4.32-6.06 4.32-10.26V86.94Zm44.72 66.06c-3.72 0-6.72-1.02-9-3.06-2.16-2.16-3.24-4.98-3.24-8.46V91.26c0-3.48 1.02-6.18 3.06-8.1 2.04-2.04 4.74-3.06 8.1-3.06h16.38c7.92 0 14.64 1.62 20.16 4.86 5.52 3.12 9.72 7.44 12.6 12.96 3 5.4 4.5 11.58 4.5 18.54 0 7.2-1.5 13.56-4.5 19.08-3 5.52-7.08 9.84-12.24 12.96-5.16 3-10.92 4.5-17.28 4.5h-18.54Zm8.46-14.4h7.02c6.84 0 12.06-1.92 15.66-5.76 3.6-3.96 5.34-9.42 5.22-16.38-.12-7.2-1.98-12.66-5.58-16.38-3.6-3.72-8.76-5.58-15.48-5.58h-6.84c-3 0-4.5 1.5-4.5 4.5v35.1c0 3 1.5 4.5 4.5 4.5Zm65.65 16.2c-2.28 0-4.2-.72-5.76-2.16-1.56-1.44-2.34-3.24-2.34-5.4v-60.3c0-2.28.78-4.14 2.34-5.58 1.56-1.44 3.48-2.16 5.76-2.16 2.4 0 4.32.72 5.76 2.16 1.56 1.44 2.34 3.3 2.34 5.58v60.3c0 2.28-.78 4.14-2.34 5.58-1.44 1.32-3.36 1.98-5.76 1.98Zm59.29 0c-7.08 0-13.5-1.68-19.26-5.04-5.64-3.48-10.14-8.16-13.5-14.04-3.24-5.88-4.86-12.36-4.86-19.44 0-7.32 1.62-13.8 4.86-19.44 3.36-5.76 7.86-10.26 13.5-13.5 5.64-3.36 12.06-5.04 19.26-5.04 7.2 0 13.56 1.68 19.08 5.04 5.64 3.24 10.02 7.74 13.14 13.5 3.24 5.64 4.86 12.12 4.86 19.44 0 7.2-1.62 13.74-4.86 19.62-3.24 5.76-7.68 10.38-13.32 13.86-5.52 3.36-11.82 5.04-18.9 5.04Zm0-14.4c6.12 0 11.1-2.28 14.94-6.84 3.96-4.56 5.94-10.32 5.94-17.28 0-6.96-1.98-12.66-5.94-17.1-3.84-4.44-8.82-6.66-14.94-6.66-6.24 0-11.4 2.22-15.48 6.66-3.96 4.44-5.94 10.14-5.94 17.1 0 6.96 1.98 12.72 5.94 17.28 4.08 4.56 9.24 6.84 15.48 6.84Z"/><path fill="#FF7100" d="M55.802 574.266A185.979 185.979 0 0 1 44 588a642.342 642.342 0 0 0 11.802-13.734C165.431 433.225 6.673 207.898 157.771 101L178 89.5C84.92 292.345 217.608 380.376 55.802 574.266Z"/><path fill="#FFCA2D" d="M271.414 130.331C88.951 208.847 208.817 438.992 45 588c217.091-162.313 122.811-302.008 252-457.669 8.524-8.514-18.483-.887-25.586 0Z"/><path fill="#FF3E00" d="M43.867 86c-135.736 142.384 95.813 322.026 0 503C167.626 361.452 27.239 315.677 64.5 69.5L43.867 86Z"/><defs><linearGradient id="a" x1="1078" x2="1083" y1="453" y2="217.5" gradientUnits="userSpaceOnUse"><stop stop-color="#005299"/><stop offset="1" stop-color="#00C0FF"/></linearGradient></defs></svg>