<svg xmlns="http://www.w3.org/2000/svg" width="101" height="117" fill="none"><path fill="#73B6FF" d="M100.21 86.95h.01c.01 0 .02.01.04.02s.03.02.05.03c.02.01.05.03.07.04.01 0 .02.01.03.02l.1.06c-.01 0-.03-.02-.04-.03-.08-.05-.16-.09-.23-.14a33.546 33.546 0 0 1-16.49-28.88c0-8.9 3.53-17.43 9.83-23.72 2.03-2.03 4.29-3.77 6.71-5.19.01 0 .03-.02.04-.02.03-.02.05-.03.08-.05-.02.01-.04.02-.05.03a33.522 33.522 0 0 1-16.6 4.4c-8.9 0-17.43-3.53-23.72-9.83-6.2-6.2-9.72-14.58-9.82-23.34V0c0 26.68 10.61 52.27 29.48 71.14 6.19 6.19 13.1 11.49 20.53 15.81h-.02ZM40.38 23.69A33.522 33.522 0 0 1 .06 29.12c-.02-.01-.04-.02-.05-.03.03.02.05.03.08.05a33.652 33.652 0 0 1 6.75 5.21 33.537 33.537 0 0 1 9.82 23.72A33.537 33.537 0 0 1 .17 86.96c-.02.01-.04.02-.06.04 0 0-.01 0-.02.01H.1c.03-.01.05-.03.08-.05 7.44-4.33 14.36-9.63 20.56-15.83A100.642 100.642 0 0 0 50.2 0v.35c-.1 8.76-3.62 17.14-9.82 23.34Z"/><path fill="#73B6FF" d="M60.03 92.47a33.536 33.536 0 0 1 40.08-5.57A100.596 100.596 0 0 0 50.2 73.65c-17.66 0-34.87 4.65-49.96 13.27a33.508 33.508 0 0 1 16.41-4.29 33.546 33.546 0 0 1 33.54 33.17v.37-.37c.1-8.76 3.62-17.14 9.82-23.34l.02.01Z"/></svg>