<svg width="106" height="109" viewBox="0 0 106 109" fill="none" xmlns="http://www.w3.org/2000/svg">
<path stroke="#000" d="M30.26 86.7413C46.97 86.7413 60.52 73.1913 60.52 56.4813C60.52 64.8413 53.75 71.6113 45.39 71.6113C37.03 71.6113 30.26 64.8413 30.26 56.4813H0C0 73.1913 13.55 86.7413 30.26 86.7413Z" fill="#B48DFF"/>
<path stroke="#000" d="M101.86 67.5513C93.5 53.0813 75 48.1213 60.52 56.4713C67.76 52.2913 77.01 54.7713 81.19 62.0113C85.37 69.2513 82.89 78.5013 75.65 82.6813L90.78 108.891C105.25 100.531 110.21 82.0313 101.86 67.5513Z" fill="#B48DFF"/>
<path stroke="#000" d="M49.45 15.1413C41.09 29.6113 46.05 48.1213 60.53 56.4813C53.29 52.3013 50.81 43.0513 54.99 35.8113C59.17 28.5713 68.42 26.0913 75.66 30.2713L90.79 4.06134C76.32 -4.29866 57.81 0.661336 49.45 15.1413Z" fill="#B48DFF"/>
</svg>