<svg xmlns="http://www.w3.org/2000/svg" width="109" height="109" fill="none"><mask id="a" fill="#fff"><path fill-rule="evenodd" d="M1.19 55.72c-1.58-.38-1.58-2.64 0-3.02l15.13-3.6 20.72-5.01c.41-.1.84-.03 1.19.19l13.72 8.61c.97.61.97 2.01 0 2.62l-13.72 8.67c-.35.22-.79.29-1.19.2l-20.71-5.01L1.2 55.72h-.01Zm14.55-38.07c-.85-1.39.75-2.98 2.14-2.13l13.29 8.2 10.55 6.56c.57.35.84 1.03.69 1.68l-1.42 5.9c-.1.41-.03.83.19 1.19l.02.03c.87 1.39-.74 3.01-2.14 2.14l-.3-.19c-.35-.22-.78-.29-1.19-.19l-5.62 1.37a1.54 1.54 0 0 1-1.69-.7l-6.38-10.49-8.14-13.36v-.01Zm1.82 75.41c-1.39.86-2.99-.73-2.14-2.12l8.13-13.35 6.5-10.69c.35-.58 1.04-.86 1.69-.7l5.81 1.43c.41.1.85.03 1.2-.2 1.39-.88 3.02.72 2.15 2.12l-.21.34c-.22.35-.28.77-.19 1.17l1.36 5.71c.16.65-.12 1.33-.69 1.68l-10.41 6.43-13.21 8.18h.01Zm74.75-1.79c.85 1.39-.75 2.98-2.14 2.12l-13.21-8.18-10.61-6.57c-.57-.35-.85-1.03-.69-1.68l1.42-5.89c.1-.41.03-.83-.19-1.19l-.02-.03c-.87-1.39.74-3.01 2.14-2.14l.3.19c.35.22.78.29 1.19.19l5.62-1.37c.66-.16 1.34.12 1.69.7l6.38 10.49 8.13 13.35-.01.01Zm-1.79-75.41c1.39-.86 2.99.73 2.14 2.12l-8.15 13.43-6.5 10.63c-.35.58-1.04.86-1.69.7l-5.81-1.43c-.41-.1-.85-.03-1.2.2-1.39.88-3.02-.72-2.15-2.12l.21-.34c.22-.35.28-.77.19-1.17l-1.36-5.71c-.16-.65.12-1.33.69-1.68l10.41-6.43 13.23-8.19-.01-.01ZM52.78 1.19c.38-1.59 2.64-1.59 3.02 0l3.62 15.24 4.91 20.91c.09.4.03.82-.19 1.17l-8.53 13.82c-.6.98-2.03.98-2.64 0l-8.59-13.82c-.22-.35-.29-.77-.19-1.18l4.98-20.91 3.62-15.24-.01.01Zm54.13 52.04c1.58.38 1.58 2.63 0 3.01L91.74 59.9l-20.72 4.95c-.41.1-.83.03-1.18-.19l-13.72-8.62c-.97-.61-.97-2.01 0-2.62l13.72-8.67c.35-.22.79-.29 1.19-.2l20.71 5.01 15.17 3.66v.01ZM55.29 107.7c-.38 1.59-2.65 1.59-3.02 0l-3.56-15.2-4.98-20.91c-.1-.4-.03-.82.19-1.17l8.53-13.82c.6-.98 2.03-.98 2.64 0l8.59 13.82c.22.35.29.77.19 1.18l-4.98 20.91-3.61 15.2.01-.01Z" clip-rule="evenodd"/></mask><path fill="#A0EC06" fill-rule="evenodd" stroke="#000" stroke-width="2" d="M1.19 55.72c-1.58-.38-1.58-2.64 0-3.02l15.13-3.6 20.72-5.01c.41-.1.84-.03 1.19.19l13.72 8.61c.97.61.97 2.01 0 2.62l-13.72 8.67c-.35.22-.79.29-1.19.2l-20.71-5.01L1.2 55.72h-.01Zm14.55-38.07c-.85-1.39.75-2.98 2.14-2.13l13.29 8.2 10.55 6.56c.57.35.84 1.03.69 1.68l-1.42 5.9c-.1.41-.03.83.19 1.19l.02.03c.87 1.39-.74 3.01-2.14 2.14l-.3-.19c-.35-.22-.78-.29-1.19-.19l-5.62 1.37a1.54 1.54 0 0 1-1.69-.7l-6.38-10.49-8.14-13.36v-.01Zm1.82 75.41c-1.39.86-2.99-.73-2.14-2.12l8.13-13.35 6.5-10.69c.35-.58 1.04-.86 1.69-.7l5.81 1.43c.41.1.85.03 1.2-.2 1.39-.88 3.02.72 2.15 2.12l-.21.34c-.22.35-.28.77-.19 1.17l1.36 5.71c.16.65-.12 1.33-.69 1.68l-10.41 6.43-13.21 8.18h.01Zm74.75-1.79c.85 1.39-.75 2.98-2.14 2.12l-13.21-8.18-10.61-6.57c-.57-.35-.85-1.03-.69-1.68l1.42-5.89c.1-.41.03-.83-.19-1.19l-.02-.03c-.87-1.39.74-3.01 2.14-2.14l.3.19c.35.22.78.29 1.19.19l5.62-1.37c.66-.16 1.34.12 1.69.7l6.38 10.49 8.13 13.35-.01.01Zm-1.79-75.41c1.39-.86 2.99.73 2.14 2.12l-8.15 13.43-6.5 10.63c-.35.58-1.04.86-1.69.7l-5.81-1.43c-.41-.1-.85-.03-1.2.2-1.39.88-3.02-.72-2.15-2.12l.21-.34c.22-.35.28-.77.19-1.17l-1.36-5.71c-.16-.65.12-1.33.69-1.68l10.41-6.43 13.23-8.19-.01-.01ZM52.78 1.19c.38-1.59 2.64-1.59 3.02 0l3.62 15.24 4.91 20.91c.09.4.03.82-.19 1.17l-8.53 13.82c-.6.98-2.03.98-2.64 0l-8.59-13.82c-.22-.35-.29-.77-.19-1.18l4.98-20.91 3.62-15.24-.01.01Zm54.13 52.04c1.58.38 1.58 2.63 0 3.01L91.74 59.9l-20.72 4.95c-.41.1-.83.03-1.18-.19l-13.72-8.62c-.97-.61-.97-2.01 0-2.62l13.72-8.67c.35-.22.79-.29 1.19-.2l20.71 5.01 15.17 3.66v.01ZM55.29 107.7c-.38 1.59-2.65 1.59-3.02 0l-3.56-15.2-4.98-20.91c-.1-.4-.03-.82.19-1.17l8.53-13.82c.6-.98 2.03-.98 2.64 0l8.59 13.82c.22.35.29.77.19 1.18l-4.98 20.91-3.61 15.2.01-.01Z" clip-rule="evenodd" mask="url(#a)"/></svg>