<svg xmlns="http://www.w3.org/2000/svg" width="125" height="164" fill="none"><g clip-path="url(#a)"><path fill="#EAFE07" d="M102.342 71.475c-11.568 4.829-24.725 4.169-36.33-1.74-11.237-5.721-14.397-20.042-7.023-28.034 7.673-8.317 17.958-5.105 26.685 2.102 9.143 7.551 14.736 17.371 16.668 27.672 2.372 12.646-.774 26.017-9.645 36.807-7.509 9.133-16.908 14.52-27.18 16.172-8.228 1.325-17.015.254-25.84-3.206-9.831-3.855-17.65-15.096-11.587-24.18 5.625-8.428 17.205-5.957 23.525 0 8.041 7.579 12.841 17.356 13.901 27.386 10.273-1.652 19.672-7.039 27.18-16.172 8.872-10.79 12.018-24.161 9.646-36.807Z"/><path stroke="#000" stroke-linecap="round" stroke-width="3" d="M112.71 1.402s20.63 42.024 4.916 59.222c-13.793 15.095-34.41 17.872-51.615 9.11-11.236-5.72-14.396-20.04-7.022-28.033 7.672-8.317 17.958-5.105 26.685 2.102 20.365 16.82 23.121 44.898 7.022 64.479-13.522 16.448-33.177 20.745-53.02 12.966-9.83-3.855-17.649-15.096-11.586-24.18 5.625-8.428 17.205-5.957 23.525 0 16.12 15.194 19.215 39.217 5.267 56.419-14.137 17.435-55.478 4.556-55.478 4.556"/></g><defs><clipPath id="a"><path fill="#fff" d="M0 0h125v164H0z"/></clipPath></defs></svg>