<svg xmlns="http://www.w3.org/2000/svg" width="137" height="116" fill="none"><path fill="#FFBF00" stroke="#000" d="m61.337 2.878-.19-.461.19.461a18.524 18.524 0 0 1 14.166 0l51.052 21.125.169-.41-.169.41c2.425 1.003 2.399 4.447-.04 5.413l.185.465-.185-.465-51.267 20.33.184.465-.184-.464a18.522 18.522 0 0 1-13.657 0l-51.266-20.33c-2.44-.967-2.465-4.41-.04-5.414L61.336 2.878Z"/><mask id="a" fill="#fff"><path d="M72.968 61.313v50.788c0 2.415 2.436 4.069 4.681 3.179l57.127-22.174a3.42 3.42 0 0 0 2.159-3.18V39.14c0-2.415-2.435-4.07-4.681-3.18L75.128 58.135a3.42 3.42 0 0 0-2.16 3.18Z"/></mask><path fill="#26B5F8" d="M72.968 61.313v50.788c0 2.415 2.436 4.069 4.681 3.179l57.127-22.174a3.42 3.42 0 0 0 2.159-3.18V39.14c0-2.415-2.435-4.07-4.681-3.18L75.128 58.135a3.42 3.42 0 0 0-2.16 3.18Z"/><path fill="#000" d="m77.65 115.28-.363-.932-.006.003.368.929Zm57.126-22.174.362.933.006-.003-.368-.93Zm-2.522-57.146.362.932.007-.003-.369-.93ZM75.128 58.134l-.362-.933-.007.003.368.93Zm-3.16 3.18V112.1h2V61.313h-2Zm0 50.787c0 3.122 3.148 5.259 6.05 4.109l-.737-1.859a2.42 2.42 0 0 1-3.313-2.25h-2Zm6.043 4.112 57.127-22.174-.724-1.865-57.127 22.174.724 1.865Zm57.133-22.177a4.419 4.419 0 0 0 2.791-4.11h-2a2.42 2.42 0 0 1-1.528 2.25l.737 1.86Zm2.791-4.11V39.14h-2v50.788h2Zm0-50.787c0-3.122-3.148-5.26-6.049-4.109l.737 1.86a2.42 2.42 0 0 1 3.312 2.25h2Zm-6.043-4.112L74.766 57.201l.723 1.865 57.127-22.174-.724-1.865ZM74.759 57.204a4.42 4.42 0 0 0-2.791 4.11h2a2.42 2.42 0 0 1 1.528-2.25l-.737-1.86Z" mask="url(#a)"/><path fill="#ED3049" stroke="#000" d="m42.457 71.67-1.72.83-.001.001L4.948 89.65C2.976 90.6.5 89.137.5 87.022V39.353c0-.733.376-1.397.938-1.929l.006-.005.005-.005a3.39 3.39 0 0 1 .755-.566l.007-.004.007-.004c.725-.435 1.782-.555 2.67-.204h.001L59.16 58.14c2.375.942 2.53 4.244.252 5.344L42.457 71.67Z"/><path fill="#000" fill-opacity=".25" d="M59.629 63.934 42.675 72.12 1.095 37.06a3.89 3.89 0 0 1 .866-.649c.855-.513 2.075-.65 3.112-.24l54.27 21.503c2.76 1.095 2.976 4.96.286 6.26Z"/></svg>