<svg xmlns="http://www.w3.org/2000/svg" width="149" height="202" fill="none"><g clip-path="url(#a)"><path stroke="#000" stroke-linecap="round" stroke-width="3.823" d="M21.777 156.709s-39.269-95.504 2.145-114.44c18.899-8.64 36.734-2.314 44.83 18.044 1.89 4.751 1.168 9.703-2.93 12.763-5.85 4.37-15.293-2.298-16.072-9.56-1.663-15.495 12.221-41.534 30.5-51.492C101.731.323 135.953 6.26 135.953 6.26"/><path fill="#EAFE07" d="m44.819 192.058-2.908-42.667-13.213 10.545-13.213 10.545 29.334 21.577Z"/><path fill="#EAFE07" d="m21.82 157.958 7.37 1.823-5.019 4.253-2.35-6.076Z"/><path fill="#000" d="M42.206 149.441a7.1 7.1 0 0 0-.244-1.31.839.839 0 0 0-.49-.599c-.231-.08-.5-.017-.797.186a4.493 4.493 0 0 0-.65.579c-.158.163-.311.33-.465.497-.22.24-.446.488-.683.712-3.219 3.039-6.094 5.818-8.664 9.018l-.383-.126c-.362-.125-.73-.238-1.1-.339-.562-.147-1.124-.295-1.685-.444-1.782-.472-3.624-.96-5.454-1.371-.66-.148-1.188-.035-1.488.318-.314.372-.337.948-.061 1.624.1.244.216.497.357.776.62 1.219 1.242 2.438 1.87 3.668l.569 1.115-.021.016-.94.651c-1.07.741-2.176 1.507-3.27 2.251-.312.212-.622.426-.932.642-.948.657-1.927 1.337-2.937 1.914-.536.306-.841.658-.967 1.145a2.442 2.442 0 0 0-.07.644c.01.76.326 1.331 1.024 1.851a3680.32 3680.32 0 0 1 7.875 5.888c2.119 1.587 4.238 3.172 6.358 4.757a152.118 152.118 0 0 0 14.189 9.443c.566.341 1.162.633 1.78.871.14.062.294.092.449.088.154-.005.305-.044.442-.114a1.122 1.122 0 0 0 .498-.827c.03-.218.037-.439.02-.658v-.03c-.018-.488-.032-.977-.046-1.466a75.736 75.736 0 0 0-.151-3.464 577.335 577.335 0 0 0-2.458-25.264c-.29-2.432-.576-4.906-.854-7.299a2761.3 2761.3 0 0 0-.62-5.343Zm-11.82 12.488c.239.492.466.989.682 1.49.813 1.927 1.625 3.855 2.433 5.783 1.615 3.857 3.244 7.708 4.887 11.554.504 1.174 1.114 2.324 1.702 3.436.202.381.405.763.603 1.146.158.305.424.816 1.21.775a.19.19 0 0 0 .134-.066.189.189 0 0 0 .042-.144 7.487 7.487 0 0 1-.034-.305 4.281 4.281 0 0 0-.09-.603c-1.694-6.778-4.593-13.045-7.399-19.105-.634-1.371-1.314-2.684-2.034-4.073a341.17 341.17 0 0 1-.919-1.785l8.943-9.575c.023.074.04.15.05.228.212 1.968.427 3.936.644 5.903.528 4.817 1.074 9.8 1.55 14.704.426 4.368.78 8.816 1.124 13.119.114 1.431.229 2.861.345 4.292.045.554.05 1.103.057 1.684l.005.464c-6.383-3.989-12.476-8.546-18.371-12.957-3.098-2.317-6.3-4.712-9.523-7.011 3.973-2.946 8.089-5.735 12.071-8.434.539-.364 1.077-.729 1.616-1.096l.273.575v.001Zm-5.837.696-1.887-3.9 5.975 1.279-4.088 2.621Z"/></g><defs><clipPath id="a"><path fill="#fff" d="m146.828.59 1.619 199.993-146.633 1.186L.196 1.776z"/></clipPath></defs></svg>