<svg xmlns="http://www.w3.org/2000/svg" width="125" height="144" fill="none"><g fill="#73B6FF" clip-path="url(#a)"><path d="M124.614 107.78h.013c.012 0 .025.012.05.025.024.012.037.025.062.037.025.012.062.037.087.05.012 0 .025.012.037.024l.125.075c-.013 0-.038-.025-.05-.037-.1-.062-.199-.112-.286-.174a41.504 41.504 0 0 1-8.282-6.396 41.516 41.516 0 0 1-12.224-29.403A41.465 41.465 0 0 1 116.37 42.58a41.515 41.515 0 0 1 8.344-6.433c.012 0 .037-.025.05-.025.037-.025.062-.037.099-.062a.258.258 0 0 0-.062.037 41.79 41.79 0 0 1-20.643 5.454 41.731 41.731 0 0 1-29.496-12.185A41.519 41.519 0 0 1 62.45.434V0c0 33.072 13.194 64.792 36.66 88.183a124.835 124.835 0 0 0 25.529 19.597h-.025ZM50.214 29.365a41.79 41.79 0 0 1-50.14 6.73c-.024-.011-.05-.024-.062-.036.038.025.063.037.1.062a41.829 41.829 0 0 1 8.394 6.458 41.504 41.504 0 0 1 0 58.805 41.657 41.657 0 0 1-8.295 6.408c-.024.013-.05.025-.074.05 0 0-.013 0-.025.012h.012c.038-.012.063-.037.1-.062A125.155 125.155 0 0 0 25.79 88.17C49.23 64.792 62.425 33.071 62.425 0v.434a41.519 41.519 0 0 1-12.211 28.931Z"/><path d="M74.65 114.622a41.783 41.783 0 0 1 29.496-12.185 41.802 41.802 0 0 1 20.344 5.281 125.402 125.402 0 0 0-62.064-16.424c-21.961 0-43.362 5.764-62.127 16.449a41.766 41.766 0 0 1 20.406-5.318 41.783 41.783 0 0 1 29.497 12.185 41.519 41.519 0 0 1 12.211 28.931V144v-.459a41.519 41.519 0 0 1 12.212-28.931l.025.012Z"/></g><defs><clipPath id="a"><path fill="#fff" d="M0 0h125v144H0z"/></clipPath></defs></svg>