<svg xmlns="http://www.w3.org/2000/svg" width="118" height="109" fill="none"><path fill="#73B6FF" stroke="#000" stroke-width="1"  d="M102.88 20.08 81.25 48.31c.24.3.49.59.73.89 5.46-1.72 10.91-3.44 16.37-5.16.3.6.59 1.2.89 1.8-4.83 3.54-9.67 7.07-14.5 10.61.05.41.1.81.16 1.22l32.29 3.81v1.91c-11.46 1.8-22.92 3.6-35.43 5.56 4.72 4.49 8.72 8.28 12.71 12.08l-.84 1.46c-5.47-2.03-10.93-4.05-16.4-6.08-.28.29-.55.58-.83.87 6.15 10.22 12.29 20.45 18.44 30.67l-.95.95c-1.08-.66-2.3-1.17-3.23-2.01-9.27-8.38-18.47-16.83-27.74-25.21-3.83-3.46-5.08-3.38-8.93.13-8.97 8.17-17.91 16.36-26.9 24.5-1.11 1-2.41 1.79-4.22 2.24 5.03-10.99 11.99-20.82 17.68-31.34-.2-.28-.41-.56-.61-.84-5.5 2.03-11 4.07-16.51 6.1l-.93-1.41c3.98-3.77 7.96-7.54 12.8-12.12C22.86 67 11.43 65.21-.01 63.43v-1.64c10.48-2.5 21.46-2.05 32.39-5.2-4.83-3.57-9.66-7.15-14.49-10.72.2-.39.41-.78.61-1.18 5.78.05 10.88 3.39 17.67 4.54C29.07 38.52 20.82 29.86 14.32 20c.42-.42.85-.84 1.27-1.26l27.43 20.71c.34-.16.68-.32 1.03-.47-1.06-6.58-2.13-13.15-3.19-19.73.54-.21 1.09-.42 1.63-.63l8.88 15.81c.4-.09.81-.19 1.21-.28l5-34.15c.63.01 1.26.03 1.89.04 1.65 11.39 3.31 22.79 4.96 34.18.42.07.84.13 1.26.2 2.93-5.27 5.87-10.54 8.8-15.81.55.18 1.11.36 1.66.54-1.06 6.58-2.13 13.17-3.19 19.75.28.21.56.41.84.62 9.23-6.93 18.47-13.86 27.7-20.79.45.45.91.9 1.36 1.35h.02ZM58.67 73.02c8.31-.03 15.12-6.71 15.16-14.87.04-8.29-6.94-15.3-15.26-15.33-8.31-.03-15.27 6.91-15.28 15.24-.01 8.41 6.75 14.98 15.38 14.96Z"/></svg>