<svg xmlns="http://www.w3.org/2000/svg" width="414" height="482" fill="none"><path fill="#73B6FF" d="M254.775 383.955c7.521-2.416 15.47-3.935 23.342-4.793 14.418-1.597 28.914-2.455 43.372-3.624-7.755-1.714-15.471-2.104-23.148-3.039-13.833-1.637-27.784-2.689-41.345-5.651-9.976-2.182-12.548-8.806-7.443-17.574 5.183-8.846 11.73-16.952 18.159-25.018 6.898-8.69 14.302-16.912 21.472-25.368-13.21 9.469-25.252 20.068-37.722 30.122-4.754 3.858-10.209 7.092-15.821 9.586-6.741 3.04-11.846.936-14.418-5.884-2.065-5.456-3.546-11.34-4.17-17.185-1.675-15.821-2.766-31.681-4.091-47.541-2.377 11.145-2.962 22.367-4.287 33.551-1.169 9.976-2.377 20.069-4.988 29.733-2.338 8.612-8.261 10.95-16.289 6.742-7.014-3.663-13.561-8.456-19.756-13.444-10.756-8.651-21.121-17.848-31.643-26.811-.312.312-.584.624-.896.975 4.793 5.65 9.82 11.106 14.379 16.951 8.846 11.418 18.082 22.602 25.914 34.721 4.676 7.287 2.027 13.054-6.313 15.704-7.793 2.455-16.016 3.858-24.16 4.754-14.029 1.559-28.135 2.377-42.203 3.507 14.691 2.299 29.382 3.118 43.996 4.715 7.871.858 15.821 2.455 23.342 4.91 6.975 2.3 9.001 7.638 5.923 14.302-2.728 5.806-6.118 11.457-10.093 16.444-9.82 12.198-20.147 23.927-30.278 35.89 2.805-.662 4.715-2.221 6.624-3.78 13.873-11.184 27.2-23.186 41.852-33.318 10.755-7.442 17.965-4.013 21.121 8.729 2.143 8.729 2.689 17.887 3.624 26.889 1.091 10.638 1.832 21.315 2.767 31.954 2.377-9.82 2.884-19.563 3.897-29.227 1.013-10.015 1.675-20.185 4.013-29.888 3.04-12.47 9.587-15.159 20.654-8.768 7.326 4.247 13.872 9.859 20.497 15.236 9.236 7.521 18.198 15.354 27.278 23.07-8.729-12.47-18.666-23.693-28.057-35.345-4.326-5.377-8.223-11.339-11.223-17.535-3.39-6.937-1.208-12.314 6.196-14.692h-.078ZM169.083 98.122c-7.793 2.455-16.016 3.858-24.16 4.754-14.029 1.559-28.135 2.378-42.203 3.508 14.691 2.299 29.382 3.117 43.996 4.715 7.871.857 15.821 2.455 23.342 4.91 6.975 2.299 9.001 7.638 5.923 14.301-2.728 5.807-6.118 11.457-10.093 16.445-9.82 12.197-20.147 23.926-30.278 35.89 2.805-.663 4.715-2.221 6.624-3.78 13.873-11.184 27.2-23.186 41.852-33.318 10.755-7.443 17.965-4.014 21.121 8.729 2.143 8.729 2.689 17.886 3.624 26.888 1.091 10.638 1.832 21.316 2.767 31.954 2.377-9.82 2.884-19.562 3.897-29.226 1.013-10.015 1.675-20.186 4.013-29.889 3.04-12.47 9.587-15.159 20.654-8.768 7.326 4.248 13.872 9.859 20.497 15.237 9.236 7.521 18.198 15.353 27.278 23.069-8.729-12.47-18.666-23.693-28.057-35.344-4.326-5.378-8.223-11.34-11.223-17.536-3.39-6.936-1.208-12.314 6.196-14.691 7.521-2.416 15.47-3.936 23.342-4.793 14.418-1.598 28.914-2.455 43.372-3.624-7.755-1.715-15.471-2.105-23.148-3.04-13.833-1.637-27.784-2.689-41.345-5.65-9.976-2.144-12.548-8.807-7.443-17.575 5.183-8.846 11.729-16.951 18.159-25.018 6.898-8.69 14.302-16.912 21.472-25.368-13.21 9.47-25.252 20.069-37.722 30.123-4.754 3.857-10.209 7.092-15.821 9.586-6.741 3.04-11.846.935-14.418-5.885-2.065-5.455-3.546-11.34-4.17-17.185-1.675-15.82-2.766-31.68-4.091-47.541-2.377 11.145-2.962 22.368-4.287 33.552-1.169 9.976-2.377 20.069-4.988 29.733-2.338 8.612-8.261 10.95-16.289 6.741-7.014-3.663-13.561-8.456-19.757-13.444-10.755-8.65-21.12-17.847-31.642-26.81-.312.312-.584.623-.896.974 4.793 5.65 9.82 11.106 14.379 16.951 8.846 11.418 18.082 22.602 25.914 34.721 4.676 7.287 2.027 13.054-6.313 15.704h-.078Z"/><path fill="#73B6FF" d="M341.09 264.05c-3.39-6.937-1.208-12.314 6.196-14.692 7.521-2.416 15.471-3.935 23.342-4.793 14.418-1.597 28.915-2.455 43.372-3.624-7.755-1.714-15.47-2.104-23.147-3.039-13.834-1.637-27.785-2.689-41.346-5.651-9.976-2.143-12.547-8.807-7.443-17.574 5.183-8.846 11.73-16.952 18.16-25.018 6.897-8.69 14.301-16.912 21.471-25.369-13.21 9.47-25.251 20.069-37.721 30.123-4.754 3.858-10.21 7.092-15.821 9.586-6.742 3.04-11.847.936-14.419-5.884-2.065-5.456-3.546-11.34-4.169-17.185-1.676-15.821-2.767-31.681-4.092-47.541-2.377 11.145-2.962 22.367-4.286 33.551-1.169 9.976-2.378 20.069-4.988 29.733-2.338 8.612-8.262 10.95-16.289 6.742-7.014-3.663-13.561-8.456-19.757-13.444-10.755-8.651-21.121-17.848-31.642-26.811-.312.312-.585.624-.897.975 4.793 5.65 9.82 11.106 14.38 16.951 8.845 11.418 18.081 22.602 25.914 34.721 4.676 7.287 2.026 13.054-6.313 15.704-7.794 2.455-16.016 3.858-24.161 4.754-10.404 1.169-20.887 1.91-31.33 2.689-3.507-.39-7.015-.702-10.483-1.091-13.834-1.637-27.784-2.689-41.345-5.651-9.976-2.143-12.548-8.806-7.443-17.574 5.183-8.846 11.729-16.952 18.159-25.018 6.897-8.69 14.301-16.912 21.472-25.368-13.211 9.469-25.252 20.068-37.722 30.122-4.754 3.858-10.209 7.092-15.821 9.586-6.741 3.04-11.846.936-14.418-5.884-2.066-5.455-3.546-11.34-4.17-17.185-1.675-15.821-2.767-31.681-4.091-47.541-2.378 11.145-2.962 22.367-4.287 33.551-1.169 9.976-2.377 20.069-4.988 29.733-2.338 8.612-8.261 10.95-16.289 6.742-7.014-3.663-13.56-8.456-19.757-13.444-10.755-8.651-21.12-17.848-31.642-26.811-.312.312-.585.624-.896.975 4.793 5.65 9.82 11.106 14.379 16.951 8.846 11.418 18.081 22.602 25.914 34.721 4.676 7.287 2.026 13.054-6.313 15.704-7.794 2.455-16.016 3.858-24.16 4.754-14.029 1.559-28.135 2.377-42.203 3.507 14.691 2.299 29.382 3.118 43.995 4.715 7.872.858 15.822 2.455 23.342 4.91 6.976 2.3 9.002 7.638 5.923 14.302-2.727 5.806-6.118 11.457-10.092 16.444-9.82 12.198-20.147 23.927-30.279 35.89 2.806-.662 4.715-2.221 6.625-3.78 13.873-11.183 27.2-23.186 41.852-33.318 10.755-7.442 17.964-4.013 21.121 8.729 2.143 8.729 2.689 17.887 3.624 26.889 1.091 10.638 1.831 21.315 2.767 31.954 2.377-9.82 2.883-19.562 3.896-29.227 1.014-10.015 1.676-20.185 4.014-29.888 3.04-12.47 9.586-15.159 20.653-8.768 7.326 4.247 13.873 9.859 20.498 15.236 9.235 7.521 18.198 15.354 27.278 23.07-8.729-12.47-18.666-23.693-28.058-35.345-4.325-5.377-8.222-11.339-11.222-17.535-3.391-6.937-1.208-12.314 6.196-14.692 7.52-2.416 15.47-3.935 23.342-4.793 11.3-1.247 22.679-2.065 34.019-2.922 9.937 1.052 19.913 1.831 29.811 2.922 7.871.858 15.821 2.455 23.342 4.91 6.975 2.3 9.002 7.638 5.923 14.302-2.728 5.806-6.118 11.456-10.093 16.444-9.82 12.198-20.146 23.927-30.278 35.89 2.806-.662 4.715-2.221 6.624-3.78 13.873-11.184 27.2-23.186 41.852-33.318 10.756-7.443 17.965-4.013 21.121 8.729 2.144 8.729 2.689 17.887 3.624 26.889 1.091 10.638 1.832 21.315 2.767 31.954 2.377-9.82 2.884-19.563 3.897-29.227 1.013-10.015 1.676-20.185 4.014-29.888 3.039-12.47 9.586-15.159 20.653-8.768 7.326 4.247 13.873 9.859 20.497 15.236 9.236 7.521 18.199 15.354 27.278 23.07-8.729-12.47-18.666-23.693-28.057-35.345-4.326-5.377-8.222-11.34-11.223-17.536l-.156-.038Z"/></svg>