<svg xmlns="http://www.w3.org/2000/svg" width="200" height="233" fill="none"><path fill="#73B6FF" d="M123.079 185.486c3.634-1.167 7.474-1.902 11.277-2.316 6.965-.772 13.968-1.186 20.952-1.75-3.746-.829-7.473-1.017-11.182-1.469-6.683-.791-13.422-1.299-19.974-2.73-4.819-1.054-6.061-4.254-3.595-8.49 2.504-4.273 5.666-8.189 8.772-12.086 3.332-4.198 6.909-8.17 10.373-12.255-6.382 4.575-12.199 9.695-18.223 14.552-2.296 1.864-4.932 3.426-7.643 4.631-3.257 1.468-5.723.452-6.965-2.843-.998-2.635-1.713-5.478-2.015-8.301-.809-7.644-1.336-15.305-1.976-22.967-1.149 5.384-1.431 10.805-2.071 16.208-.565 4.82-1.148 9.695-2.41 14.364-1.13 4.16-3.99 5.29-7.869 3.257-3.388-1.77-6.55-4.085-9.544-6.495-5.196-4.179-10.203-8.622-15.286-12.952-.15.151-.282.301-.433.471 2.315 2.73 4.744 5.365 6.946 8.189 4.274 5.516 8.735 10.919 12.52 16.773 2.258 3.521.978 6.307-3.05 7.587-3.766 1.186-7.738 1.863-11.672 2.296-6.777.753-13.592 1.149-20.388 1.695 7.097 1.11 14.194 1.506 21.254 2.278 3.803.414 7.643 1.186 11.276 2.372 3.37 1.11 4.349 3.689 2.862 6.908-1.318 2.805-2.956 5.535-4.876 7.945-4.744 5.892-9.733 11.558-14.627 17.338 1.355-.32 2.278-1.073 3.2-1.826 6.702-5.403 13.14-11.201 20.218-16.096 5.196-3.595 8.679-1.939 10.204 4.217 1.035 4.217 1.299 8.641 1.75 12.99.527 5.139.885 10.297 1.337 15.436 1.148-4.744 1.393-9.45 1.882-14.119.49-4.838.81-9.751 1.939-14.439 1.469-6.024 4.631-7.323 9.978-4.235 3.539 2.052 6.702 4.762 9.902 7.36 4.462 3.634 8.791 7.417 13.178 11.145-4.217-6.024-9.018-11.446-13.555-17.075-2.089-2.598-3.972-5.478-5.421-8.471-1.638-3.351-.584-5.949 2.993-7.097h-.038ZM81.683 47.402c-3.766 1.186-7.738 1.864-11.672 2.297-6.777.753-13.592 1.148-20.388 1.694 7.097 1.11 14.194 1.506 21.254 2.278 3.803.414 7.643 1.186 11.276 2.372 3.37 1.11 4.349 3.69 2.862 6.909-1.318 2.805-2.956 5.534-4.876 7.944-4.744 5.892-9.733 11.559-14.627 17.338 1.355-.32 2.278-1.073 3.2-1.826 6.702-5.403 13.14-11.2 20.218-16.096 5.196-3.595 8.679-1.938 10.204 4.217 1.035 4.217 1.299 8.641 1.75 12.99.527 5.14.885 10.297 1.337 15.437 1.148-4.744 1.393-9.45 1.882-14.12.49-4.837.81-9.75 1.939-14.438 1.469-6.024 4.631-7.323 9.978-4.236 3.539 2.052 6.702 4.763 9.902 7.36 4.462 3.634 8.791 7.418 13.178 11.145-4.217-6.024-9.018-11.446-13.555-17.074-2.089-2.598-3.972-5.478-5.421-8.472-1.638-3.35-.584-5.949 2.993-7.097 3.633-1.167 7.474-1.901 11.276-2.315 6.966-.772 13.969-1.186 20.953-1.751-3.746-.828-7.474-1.017-11.182-1.468-6.683-.791-13.423-1.3-19.974-2.73-4.819-1.036-6.062-4.255-3.596-8.49 2.504-4.274 5.667-8.19 8.773-12.086 3.332-4.198 6.909-8.17 10.373-12.256-6.382 4.575-12.199 9.695-18.223 14.552-2.297 1.864-4.932 3.427-7.643 4.631-3.257 1.469-5.723.452-6.966-2.842-.997-2.636-1.713-5.478-2.014-8.302-.809-7.643-1.336-15.305-1.977-22.967-1.148 5.384-1.43 10.806-2.07 16.209-.565 4.819-1.149 9.695-2.41 14.363-1.13 4.16-3.99 5.29-7.869 3.257-3.388-1.77-6.551-4.085-9.544-6.495-5.196-4.179-10.204-8.622-15.287-12.951-.15.15-.282.3-.432.47 2.315 2.73 4.743 5.365 6.946 8.19 4.273 5.515 8.735 10.918 12.519 16.773 2.259 3.52.979 6.306-3.05 7.586h-.037Z"/><path fill="#73B6FF" d="M164.778 127.56c-1.638-3.351-.584-5.949 2.993-7.097 3.633-1.167 7.474-1.901 11.276-2.315 6.966-.772 13.969-1.186 20.953-1.751-3.746-.828-7.474-1.017-11.182-1.469-6.683-.79-13.423-1.299-19.974-2.729-4.819-1.036-6.062-4.255-3.596-8.49 2.504-4.274 5.667-8.19 8.773-12.086 3.332-4.198 6.909-8.17 10.373-12.255-6.382 4.574-12.199 9.695-18.223 14.551-2.297 1.864-4.932 3.427-7.643 4.631-3.257 1.469-5.723.452-6.966-2.842-.997-2.636-1.713-5.478-2.014-8.302-.809-7.643-1.336-15.305-1.976-22.967-1.149 5.384-1.431 10.806-2.071 16.209-.565 4.819-1.149 9.695-2.41 14.363-1.129 4.16-3.991 5.29-7.869 3.257-3.388-1.77-6.551-4.085-9.544-6.495-5.196-4.179-10.204-8.622-15.286-12.951-.151.15-.283.3-.433.47 2.315 2.73 4.744 5.365 6.946 8.19 4.273 5.515 8.735 10.918 12.519 16.773 2.259 3.52.979 6.306-3.05 7.586-3.765 1.186-7.737 1.864-11.671 2.297-5.027.565-10.091.922-15.136 1.299-1.694-.189-3.388-.339-5.064-.527-6.683-.791-13.422-1.299-19.974-2.73-4.819-1.035-6.061-4.255-3.595-8.49 2.504-4.274 5.666-8.19 8.772-12.086 3.332-4.198 6.91-8.17 10.373-12.255-6.382 4.574-12.199 9.695-18.223 14.552-2.296 1.863-4.932 3.426-7.643 4.63-3.257 1.469-5.723.452-6.965-2.842-.998-2.636-1.713-5.478-2.015-8.302-.81-7.643-1.336-15.305-1.976-22.967-1.149 5.384-1.43 10.806-2.071 16.209-.565 4.819-1.148 9.695-2.41 14.364-1.13 4.16-3.99 5.289-7.869 3.256-3.388-1.77-6.55-4.085-9.544-6.495-5.196-4.179-10.203-8.622-15.286-12.951-.15.15-.283.3-.433.47 2.315 2.73 4.744 5.365 6.946 8.19 4.274 5.515 8.735 10.918 12.52 16.773 2.258 3.52.978 6.306-3.05 7.586-3.766 1.186-7.738 1.864-11.672 2.297-6.777.753-13.592 1.148-20.388 1.694 7.097 1.111 14.194 1.506 21.254 2.278 3.802.414 7.643 1.186 11.276 2.372 3.37 1.111 4.349 3.69 2.862 6.909-1.318 2.805-2.956 5.535-4.876 7.944-4.744 5.893-9.733 11.559-14.627 17.338 1.355-.32 2.277-1.073 3.2-1.826 6.702-5.403 13.14-11.201 20.218-16.095 5.196-3.596 8.679-1.939 10.203 4.217 1.036 4.216 1.3 8.64 1.751 12.989.527 5.139.885 10.297 1.337 15.437 1.148-4.744 1.393-9.451 1.882-14.119.49-4.838.81-9.752 1.94-14.439 1.468-6.024 4.63-7.323 9.977-4.236 3.539 2.052 6.702 4.763 9.902 7.361 4.461 3.633 8.791 7.417 13.178 11.144-4.217-6.024-9.018-11.445-13.555-17.074-2.09-2.598-3.972-5.478-5.421-8.472-1.638-3.351-.584-5.948 2.993-7.097 3.633-1.167 7.474-1.901 11.276-2.315 5.46-.603 10.957-.998 16.435-1.412 4.8.508 9.62.885 14.401 1.412 3.803.414 7.643 1.186 11.277 2.372 3.369 1.11 4.348 3.689 2.861 6.909-1.318 2.805-2.956 5.534-4.876 7.944-4.744 5.892-9.732 11.559-14.627 17.338 1.355-.32 2.278-1.073 3.2-1.826 6.702-5.403 13.14-11.201 20.219-16.096 5.195-3.595 8.678-1.939 10.203 4.217 1.035 4.217 1.299 8.641 1.751 12.99.527 5.139.884 10.297 1.336 15.436 1.149-4.744 1.393-9.45 1.883-14.119.489-4.838.809-9.751 1.939-14.439 1.468-6.024 4.631-7.323 9.977-4.235 3.539 2.052 6.702 4.763 9.902 7.36 4.462 3.634 8.792 7.418 13.178 11.145-4.217-6.024-9.017-11.446-13.554-17.075-2.09-2.597-3.972-5.478-5.422-8.471l-.075-.019Z"/></svg>