<svg xmlns="http://www.w3.org/2000/svg" width="454" height="529" fill="none"><g clip-path="url(#a)"><path stroke="#000" stroke-linecap="round" stroke-width="3.823" d="M154.735 418.908S4.607 244.301 78.985 175.163c33.942-31.55 76.133-30.673 107.553 6.74 7.334 8.732 9.28 19.719 2.754 29.073-9.318 13.356-33.984 5.864-40.728-8.96-14.392-31.632-3.271-96.492 28.435-130.395 37.258-39.84 113.864-51.283 113.864-51.283"/><path fill="#EAFE07" d="m228.311 477.568-36.091-88.277-20.57 31.591-20.569 31.593 77.23 25.093Z"/><path fill="#EAFE07" d="m155.704 421.522 16.877-1.312-7.637 12.524-9.24-11.212Z"/><path fill="#000" d="M192.881 389.191a15.847 15.847 0 0 0-1.436-2.602 1.88 1.88 0 0 0-1.46-.924c-.544-.007-1.069.314-1.556.952a10.004 10.004 0 0 0-.968 1.683c-.221.454-.428.917-.636 1.378-.297.662-.602 1.345-.947 1.986-4.681 8.69-8.817 16.591-12.013 25.167l-.897.002a37.88 37.88 0 0 0-2.567.054c-1.293.083-2.586.164-3.88.242-4.102.251-8.344.511-12.505.925-1.5.15-2.54.76-2.926 1.718-.405 1.007-.048 2.242 1.009 3.481.382.446.806.9 1.301 1.39 2.167 2.147 4.338 4.29 6.53 6.454l1.987 1.961-.033.048-1.533 2.037c-1.745 2.319-3.548 4.717-5.344 7.059-.51.668-1.017 1.339-1.521 2.012-1.544 2.057-3.14 4.183-4.874 6.113-.918 1.023-1.318 1.984-1.243 3.103.039.482.141.956.306 1.412.553 1.602 1.623 2.589 3.464 3.199 6.937 2.301 13.986 4.659 20.801 6.938 5.598 1.873 11.196 3.743 16.796 5.609a338.79 338.79 0 0 0 36.658 10.033c1.439.327 2.905.526 4.379.596a2.306 2.306 0 0 0 1.869-.681 2.493 2.493 0 0 0 .475-2.1 7.2 7.2 0 0 0-.418-1.407l-.024-.062c-.38-1.021-.753-2.046-1.125-3.071-.865-2.381-1.76-4.844-2.751-7.226a1287.55 1287.55 0 0 0-22.927-51.755c-2.32-4.944-4.663-9.98-6.928-14.851a6727.534 6727.534 0 0 0-5.063-10.873Zm-16.259 34.726a82.832 82.832 0 0 1 2.488 2.677c3.074 3.507 6.143 7.019 9.209 10.533a3757.208 3757.208 0 0 0 18.45 21.027c1.889 2.134 3.987 4.14 6.012 6.08.695.665 1.393 1.331 2.082 2.002.549.536 1.469 1.432 3.105.793a.42.42 0 0 0 .237-.235.416.416 0 0 0-.013-.333 16.963 16.963 0 0 1-.285-.623 9.495 9.495 0 0 0-.613-1.212c-8.341-13.16-18.877-24.391-29.066-35.25-2.305-2.456-4.666-4.758-7.163-7.194a726.494 726.494 0 0 1-3.198-3.134l12.211-26.543c.102.141.191.291.266.448 1.83 4.017 3.665 8.032 5.505 12.045 4.497 9.825 9.149 19.989 13.599 30.036 3.964 8.947 7.837 18.115 11.582 26.981 1.245 2.948 2.492 5.896 3.742 8.842.484 1.141.881 2.3 1.301 3.527l.336.979c-16.308-3.967-32.403-9.339-47.977-14.539-8.184-2.732-16.64-5.554-25.076-8.159 6.343-9.023 13.098-17.815 19.634-26.322.885-1.149 1.768-2.299 2.653-3.454l.979 1.027v.001Zm-11.869 5.57-6.729-6.932 13.544-1.486-6.815 8.418Z"/></g><defs><clipPath id="a"><path fill="#fff" d="m309.905.705 143.742 422.201-309.552 105.39L.353 106.093z"/></clipPath></defs></svg>