<svg xmlns="http://www.w3.org/2000/svg" width="151" height="204" fill="none"><mask id="a" width="151" height="204" x="0" y="0" maskUnits="userSpaceOnUse" style="mask-type:luminance"><path fill="#fff" d="m.7 1.385 1.638 202.353 148.362-1.201L149.062.184.7 1.384Z"/></mask><g mask="url(#a)"><path stroke="#000" stroke-linecap="round" stroke-width="3.823" d="M129.767 157.277s38.163-97.26-4.044-115.738c-19.261-8.433-37.2-1.74-45.057 18.987-1.834 4.838-1.023 9.835 3.172 12.865 5.99 4.325 15.434-2.576 16.104-9.935 1.428-15.703-13.045-41.818-31.7-51.593C46.319.377 11.795 6.943 11.795 6.943"/><path fill="#EAFE07" d="m107.035 193.417 2.243-43.214 13.539 10.452 13.54 10.452-29.322 22.31Z"/><path fill="#EAFE07" d="m129.743 158.542-7.425 1.964 5.146 4.221 2.279-6.185Z"/><path fill="#000" d="M108.98 150.26c.034-.45.109-.895.226-1.33a.857.857 0 0 1 .486-.614c.233-.085.505-.026.809.175.241.17.464.363.667.576.163.161.321.328.479.495.226.239.459.486.703.708 3.306 3.022 6.26 5.787 8.913 8.982l.384-.134a17.25 17.25 0 0 1 1.108-.361l1.698-.477c1.794-.506 3.65-1.03 5.494-1.476.665-.161 1.202-.055 1.511.298.324.37.356.953.089 1.642-.106.268-.222.531-.35.79-.606 1.244-1.216 2.486-1.83 3.741l-.558 1.138.022.016.961.643c1.095.732 2.226 1.489 3.346 2.223.318.21.636.422.953.634.968.65 1.971 1.322 3.002 1.889.547.301.862.653.997 1.143.056.212.083.431.081.65.002.769-.308 1.352-1.005 1.889-2.626 2.026-5.25 4.054-7.871 6.086-2.117 1.64-4.235 3.279-6.354 4.917a154.025 154.025 0 0 1-14.2 9.785c-.567.355-1.165.66-1.785.91a1.048 1.048 0 0 1-.903-.011 1.126 1.126 0 0 1-.518-.828 3.23 3.23 0 0 1-.031-.666l.001-.03c.01-.495.016-.99.021-1.484.014-1.149.029-2.338.097-3.507a584.516 584.516 0 0 1 2.072-25.599c.254-2.465.503-4.973.745-7.398.178-1.806.358-3.611.54-5.415Zm12.162 12.439a38.555 38.555 0 0 0-.664 1.519c-.792 1.963-1.581 3.926-2.368 5.891a1784.985 1784.985 0 0 1-4.754 11.768c-.49 1.197-1.088 2.37-1.665 3.504-.199.389-.398.778-.593 1.169-.154.312-.414.833-1.211.804a.192.192 0 0 1-.136-.065.167.167 0 0 1-.037-.068c-.008-.024-.01-.051-.008-.077.013-.107.022-.21.029-.309.013-.205.04-.409.082-.611 1.602-6.885 4.433-13.272 7.172-19.449.619-1.397 1.286-2.736 1.991-4.154.302-.606.602-1.213.901-1.821l-9.204-9.54a1.296 1.296 0 0 0-.047.231c-.183 1.995-.367 3.989-.555 5.983-.455 4.882-.926 9.932-1.328 14.901-.359 4.425-.645 8.932-.922 13.29-.091 1.449-.184 2.899-.278 4.347a23.407 23.407 0 0 0-.03 1.706l.003.469c6.391-4.14 12.48-8.85 18.372-13.409 3.097-2.395 6.296-4.87 9.52-7.248-4.068-2.916-8.278-5.67-12.351-8.335l-1.653-1.082-.266.586Zm5.918.609 1.845-3.976-6.024 1.391 4.179 2.585Z"/></g></svg>