<svg xmlns="http://www.w3.org/2000/svg" width="149" height="202" fill="none"><g clip-path="url(#a)"><path stroke="#000" stroke-linecap="round" stroke-width="3.823" d="M21.923 156.119s-39.269-95.503 2.145-114.438c18.899-8.642 36.734-2.316 44.83 18.043 1.89 4.751 1.168 9.702-2.93 12.763-5.85 4.37-15.293-2.298-16.072-9.56-1.663-15.495 12.221-41.534 30.5-51.492C101.877-.266 136.1 5.67 136.1 5.67"/><path fill="#EAFE07" d="m44.965 191.469-2.908-42.668-13.213 10.546-13.213 10.545 29.334 21.577Z"/><path fill="#EAFE07" d="m21.966 157.369 7.37 1.823-5.019 4.253-2.35-6.076Z"/><path fill="#000" d="M42.352 148.852a7.084 7.084 0 0 0-.244-1.31.839.839 0 0 0-.49-.599c-.231-.08-.5-.017-.797.185a4.5 4.5 0 0 0-.65.58c-.158.162-.312.33-.465.497-.22.24-.446.488-.683.712-3.219 3.039-6.094 5.818-8.664 9.018l-.383-.126c-.363-.126-.73-.239-1.1-.339-.562-.147-1.124-.295-1.685-.445-1.782-.471-3.624-.959-5.454-1.37-.66-.148-1.188-.035-1.488.318-.314.372-.337.948-.061 1.624.1.244.216.497.357.775.62 1.22 1.242 2.438 1.87 3.669l.569 1.115-.022.016-.94.65a400.35 400.35 0 0 1-3.27 2.251c-.311.213-.621.427-.931.642-.948.658-1.927 1.338-2.937 1.914-.536.306-.841.659-.967 1.146a2.442 2.442 0 0 0-.07.644c.01.76.326 1.331 1.024 1.851a3680.32 3680.32 0 0 1 7.875 5.888l6.358 4.757c4.55 3.41 9.286 6.563 14.189 9.442.566.342 1.162.634 1.78.872.14.062.294.092.449.088.154-.005.305-.044.442-.114a1.122 1.122 0 0 0 .498-.827c.03-.218.037-.439.02-.658v-.03c-.018-.488-.032-.977-.046-1.466a75.674 75.674 0 0 0-.151-3.464 577.335 577.335 0 0 0-2.458-25.264c-.29-2.432-.576-4.907-.854-7.299-.205-1.782-.412-3.563-.62-5.343Zm-11.82 12.488c.238.491.466.988.682 1.49.813 1.927 1.625 3.854 2.434 5.783a1721.81 1721.81 0 0 0 4.886 11.553c.504 1.175 1.114 2.325 1.702 3.436.202.382.405.763.604 1.146.157.306.423.817 1.21.776a.19.19 0 0 0 .073-.019.192.192 0 0 0 .096-.115.187.187 0 0 0 .006-.076 7.34 7.34 0 0 1-.034-.306 4.29 4.29 0 0 0-.09-.602c-1.694-6.778-4.593-13.045-7.399-19.105-.634-1.371-1.314-2.684-2.034-4.073a341.17 341.17 0 0 1-.919-1.785l8.943-9.576c.023.075.04.151.05.228.212 1.969.427 3.936.644 5.904.528 4.817 1.074 9.8 1.55 14.704.426 4.368.78 8.816 1.124 13.119.114 1.43.229 2.861.345 4.291.045.554.05 1.103.057 1.685l.005.464c-6.383-3.989-12.476-8.547-18.371-12.957-3.098-2.318-6.3-4.712-9.523-7.011 3.973-2.946 8.089-5.735 12.071-8.434.539-.364 1.077-.729 1.616-1.096l.272.575v.001Zm-5.837.696-1.887-3.9 5.975 1.278-4.088 2.622Z"/></g><defs><clipPath id="a"><path fill="#fff" d="m146.974 0 1.619 199.993L1.96 201.18.342 1.187z"/></clipPath></defs></svg>