<svg xmlns="http://www.w3.org/2000/svg" width="332" height="449" fill="none"><g clip-path="url(#a)"><path stroke="#000" stroke-linecap="round" stroke-width="3.823" d="M285.164 346.418s84.11-214.363-8.914-255.088c-42.45-18.585-81.989-3.836-99.306 41.849-4.042 10.663-2.255 21.676 6.992 28.353 13.203 9.533 34.016-5.677 35.492-21.896 3.149-34.61-28.75-92.168-69.866-113.711C101.245.609 25.154 15.082 25.154 15.082"/><path fill="#EAFE07" d="m235.062 426.069 4.944-95.242 29.841 23.036 29.841 23.036-64.626 49.17Z"/><path fill="#EAFE07" d="m285.112 349.205-16.365 4.33 11.342 9.303 5.023-13.633Z"/><path fill="#000" d="M239.349 330.951c.074-.99.241-1.971.498-2.93a1.875 1.875 0 0 1 1.072-1.354c.512-.186 1.113-.056 1.783.386a9.98 9.98 0 0 1 1.47 1.269c.358.356.706.724 1.055 1.091.499.527 1.011 1.071 1.549 1.562 7.286 6.66 13.797 12.753 19.644 19.795l.847-.295a38.644 38.644 0 0 1 2.442-.796c1.247-.348 2.494-.698 3.742-1.051 3.955-1.116 8.045-2.271 12.11-3.253 1.465-.354 2.648-.121 3.329.656.715.817.785 2.101.196 3.619a22.546 22.546 0 0 1-.77 1.741c-1.337 2.742-2.68 5.481-4.035 8.247l-1.228 2.508.047.034 2.119 1.417c2.413 1.614 4.906 3.282 7.374 4.901.702.462 1.401.928 2.1 1.397 2.135 1.432 4.344 2.913 6.618 4.162 1.204.663 1.899 1.439 2.197 2.52.122.468.182.949.177 1.433.006 1.695-.678 2.98-2.214 4.163a9095.323 9095.323 0 0 0-17.348 13.413 14902.05 14902.05 0 0 1-14.005 10.837 339.03 339.03 0 0 1-31.295 21.566 25.177 25.177 0 0 1-3.936 2.007 2.34 2.34 0 0 1-.999.214 2.322 2.322 0 0 1-.991-.24 2.493 2.493 0 0 1-1.141-1.825 7.132 7.132 0 0 1-.069-1.467l.002-.066c.022-1.09.036-2.181.048-3.27.031-2.534.063-5.154.213-7.729a1287.303 1287.303 0 0 1 4.567-56.421c.559-5.434 1.109-10.961 1.641-16.306.393-3.979.79-7.958 1.191-11.935Zm26.806 27.417a83.52 83.52 0 0 0-1.465 3.348 5578.079 5578.079 0 0 0-5.218 12.982 3901.936 3901.936 0 0 1-10.479 25.937c-1.08 2.638-2.398 5.224-3.67 7.723-.437.857-.876 1.716-1.305 2.577-.341.687-.914 1.836-2.669 1.772a.393.393 0 0 1-.165-.04.402.402 0 0 1-.218-.252.425.425 0 0 1-.016-.17c.028-.237.047-.464.064-.682.027-.452.087-.902.179-1.346 3.531-15.175 9.771-29.253 15.807-42.866 1.366-3.08 2.835-6.031 4.389-9.155a830.219 830.219 0 0 0 1.985-4.013l-20.286-21.028a3.073 3.073 0 0 0-.103.51 5293.04 5293.04 0 0 1-1.222 13.187c-1.004 10.76-2.042 21.889-2.928 32.841-.79 9.754-1.421 19.686-2.031 29.292-.202 3.194-.407 6.388-.614 9.581-.081 1.237-.074 2.462-.066 3.759l.006 1.035c14.087-9.125 27.508-19.507 40.494-29.555 6.824-5.278 13.876-10.732 20.98-15.975-8.965-6.425-18.243-12.496-27.22-18.37-1.214-.793-2.427-1.587-3.643-2.385l-.586 1.292v.001Zm13.042 1.342 4.066-8.764-13.277 3.066 9.211 5.698Z"/></g><defs><clipPath id="a"><path fill="#fff" d="m.7 2.83 3.61 445.986 326.99-2.647L327.69.184z"/></clipPath></defs></svg>