<svg xmlns="http://www.w3.org/2000/svg" width="150" height="204" fill="none"><mask id="a" width="150" height="204" x="0" y="0" maskUnits="userSpaceOnUse" style="mask-type:luminance"><path fill="#fff" d="m0 1.2 1.638 202.354L150 202.353 148.362 0 0 1.2Z"/></mask><g mask="url(#a)"><path stroke="#000" stroke-linecap="round" stroke-width="3.823" d="M129.067 157.093s38.163-97.26-4.044-115.738c-19.261-8.433-37.2-1.74-45.057 18.988-1.834 4.838-1.024 9.834 3.172 12.864 5.99 4.325 15.434-2.576 16.103-9.935 1.429-15.703-13.044-41.818-31.7-51.593C45.62.193 11.096 6.76 11.096 6.76"/><path fill="#EAFE07" d="m106.334 193.233 2.244-43.213 13.539 10.451 13.54 10.452-29.323 22.31Z"/><path fill="#EAFE07" d="m129.043 158.358-7.425 1.965 5.146 4.22 2.279-6.185Z"/><path fill="#000" d="M108.28 150.076a7.14 7.14 0 0 1 .226-1.33.845.845 0 0 1 .486-.614c.232-.084.505-.025.809.175.241.17.464.363.667.576.163.161.32.328.479.495.226.239.459.486.703.709 3.305 3.021 6.26 5.786 8.913 8.981l.384-.134c.365-.132.735-.253 1.108-.361l1.698-.477c1.794-.506 3.65-1.03 5.494-1.476.665-.16 1.202-.055 1.511.298.324.371.356.953.089 1.642-.106.268-.222.532-.35.79-.606 1.244-1.216 2.487-1.831 3.742l-.557 1.138.022.015.961.643c1.095.732 2.226 1.489 3.346 2.224.318.209.635.421.953.633.968.65 1.971 1.322 3.002 1.889.547.301.862.653.997 1.143.055.213.083.431.08.65.003.769-.307 1.352-1.004 1.889-2.626 2.026-5.25 4.054-7.871 6.086-2.117 1.64-4.236 3.279-6.355 4.917a153.814 153.814 0 0 1-14.199 9.785c-.567.355-1.165.66-1.786.911a1.073 1.073 0 0 1-.453.097 1.065 1.065 0 0 1-.45-.109 1.129 1.129 0 0 1-.517-.828 3.23 3.23 0 0 1-.032-.666l.001-.03c.01-.494.017-.989.022-1.484a76.72 76.72 0 0 1 .097-3.506 584.436 584.436 0 0 1 2.072-25.6c.254-2.465.503-4.973.744-7.398.179-1.805.359-3.611.541-5.415Zm12.162 12.439a38.555 38.555 0 0 0-.664 1.519c-.792 1.963-1.581 3.926-2.368 5.891a1841.752 1841.752 0 0 1-4.754 11.768c-.49 1.197-1.088 2.37-1.666 3.504-.198.389-.397.778-.592 1.169-.154.312-.414.833-1.211.804a.18.18 0 0 1-.075-.018.18.18 0 0 1-.098-.114.185.185 0 0 1-.008-.077 6.29 6.29 0 0 0 .029-.31c.013-.205.04-.409.082-.611 1.602-6.885 4.433-13.272 7.171-19.449.62-1.397 1.287-2.736 1.992-4.154.302-.606.602-1.213.9-1.82l-9.204-9.541a1.39 1.39 0 0 0-.046.231c-.183 1.995-.368 3.989-.555 5.983-.455 4.882-.926 9.932-1.328 14.901-.359 4.426-.645 8.932-.922 13.29l-.278 4.347a23.417 23.417 0 0 0-.03 1.706l.002.47c6.392-4.141 12.481-8.851 18.373-13.41 3.096-2.395 6.296-4.869 9.519-7.248-4.067-2.915-8.277-5.67-12.35-8.335l-1.653-1.082-.266.586Zm5.918.609 1.845-3.976-6.025 1.391 4.18 2.585Z"/></g></svg>