<svg xmlns="http://www.w3.org/2000/svg" width="150" height="204" fill="none"><mask id="a" width="150" height="204" x="0" y="0" maskUnits="userSpaceOnUse" style="mask-type:luminance"><path fill="#fff" d="m150.067 1.2-1.638 202.354L.067 202.353 1.705 0l148.362 1.2Z"/></mask><g mask="url(#a)"><path stroke="#000" stroke-linecap="round" stroke-width="3.823" d="M21 157.093s-38.163-97.26 4.044-115.738c19.26-8.433 37.2-1.74 45.057 18.988 1.834 4.838 1.024 9.834-3.172 12.864-5.99 4.325-15.434-2.576-16.103-9.935-1.43-15.703 13.044-41.818 31.7-51.593 21.922-11.486 56.446-4.92 56.446-4.92"/><path fill="#EAFE07" d="M43.732 193.233 41.49 150.02l-13.54 10.451-13.539 10.452 29.322 22.31Z"/><path fill="#EAFE07" d="m21.024 158.358 7.425 1.965-5.146 4.22-2.28-6.185Z"/><path fill="#000" d="M41.787 150.076a7.215 7.215 0 0 0-.226-1.33.848.848 0 0 0-.486-.614c-.233-.084-.505-.025-.81.175-.24.17-.463.363-.666.576-.163.161-.32.328-.479.495-.226.239-.459.486-.703.709-3.306 3.021-6.26 5.786-8.913 8.981l-.384-.134a17.898 17.898 0 0 0-1.108-.361l-1.698-.477c-1.794-.506-3.65-1.03-5.494-1.476-.665-.16-1.202-.055-1.51.298-.325.371-.357.953-.09 1.642.106.268.222.532.35.79.606 1.244 1.216 2.487 1.83 3.742l.558 1.138-.022.015-.961.643c-1.095.732-2.226 1.489-3.346 2.224-.318.209-.636.421-.953.633-.968.65-1.97 1.322-3.002 1.889-.547.301-.862.653-.997 1.143a2.476 2.476 0 0 0-.08.65c-.003.769.307 1.352 1.004 1.889 2.626 2.026 5.25 4.054 7.871 6.086a7669.37 7669.37 0 0 0 6.354 4.917 153.83 153.83 0 0 0 14.2 9.785c.567.355 1.165.66 1.786.911.142.065.296.098.453.097.156-.003.31-.04.45-.109a1.131 1.131 0 0 0 .517-.828 3.23 3.23 0 0 0 .032-.666l-.002-.03c-.01-.494-.016-.989-.021-1.484a76.72 76.72 0 0 0-.097-3.506 584.127 584.127 0 0 0-2.072-25.6c-.254-2.465-.503-4.973-.745-7.398-.178-1.805-.358-3.611-.54-5.415Zm-12.162 12.439c.232.502.454 1.008.664 1.519.792 1.963 1.581 3.926 2.368 5.891 1.57 3.928 3.156 7.851 4.754 11.768.49 1.197 1.088 2.37 1.666 3.504.198.389.397.778.592 1.169.154.312.414.833 1.21.804a.192.192 0 0 0 .137-.064.193.193 0 0 0 .044-.145 7.802 7.802 0 0 1-.028-.31 4.293 4.293 0 0 0-.082-.611c-1.602-6.885-4.433-13.272-7.172-19.449-.62-1.397-1.286-2.736-1.991-4.154-.302-.606-.602-1.213-.9-1.82l9.204-9.541c.022.075.037.153.046.231.183 1.995.367 3.989.555 5.983.455 4.882.926 9.932 1.328 14.901.359 4.426.645 8.932.922 13.29.091 1.45.184 2.899.278 4.347.037.562.034 1.118.03 1.706l-.002.47c-6.392-4.141-12.481-8.851-18.373-13.41-3.097-2.395-6.296-4.869-9.52-7.248 4.068-2.915 8.278-5.67 12.35-8.335l1.654-1.082.266.586Zm-5.918.609-1.845-3.976 6.024 1.391-4.179 2.585Z"/></g></svg>