<svg xmlns="http://www.w3.org/2000/svg" width="309" height="418" fill="none"><g clip-path="url(#a)"><path stroke="#000" stroke-linecap="round" stroke-width="3.823" d="M45.67 324.133S-35.71 126.21 50.116 86.969c39.166-17.909 76.128-4.798 92.906 37.392 3.916 9.847 2.421 20.108-6.071 26.451-12.125 9.057-31.693-4.763-33.308-19.812-3.447-32.112 25.327-86.075 63.209-106.712C211.368.037 282.29 12.34 282.29 12.34"/><path fill="#EAFE07" d="m93.423 397.391-6.026-88.424-27.382 21.853-27.383 21.855 60.791 44.716Z"/><path fill="#EAFE07" d="m45.761 326.722 15.271 3.777-10.399 8.815-4.872-12.592Z"/><path fill="#000" d="M88.01 309.072a14.69 14.69 0 0 0-.507-2.715 1.75 1.75 0 0 0-1.017-1.243c-.478-.165-1.035-.035-1.651.386a9.264 9.264 0 0 0-1.346 1.201c-.328.336-.646.684-.964 1.03-.456.497-.924 1.01-1.417 1.475-6.67 6.297-12.628 12.057-17.955 18.689l-.792-.262a35.598 35.598 0 0 0-2.28-.702 1124.49 1124.49 0 0 1-3.493-.921c-3.692-.978-7.51-1.989-11.302-2.841-1.367-.306-2.463-.072-3.083.66-.653.77-.699 1.965-.128 3.366.206.505.447 1.03.741 1.607 1.284 2.527 2.573 5.052 3.874 7.602l1.179 2.312-.044.032-1.947 1.348c-2.218 1.536-4.51 3.124-6.778 4.665-.646.44-1.289.884-1.93 1.331-1.964 1.362-3.994 2.771-6.087 3.966-1.11.635-1.743 1.366-2.004 2.375a5.047 5.047 0 0 0-.143 1.334c.02 1.575.675 2.759 2.12 3.835a8071.364 8071.364 0 0 1 16.32 12.203c4.392 3.288 8.783 6.575 13.178 9.859a315.146 315.146 0 0 0 29.404 19.569 23.513 23.513 0 0 0 3.688 1.805c.292.129.61.192.93.183.32-.01.634-.091.918-.237a2.312 2.312 0 0 0 1.033-1.713c.06-.452.075-.909.042-1.364l-.003-.061a371.443 371.443 0 0 1-.094-3.039c-.066-2.353-.136-4.788-.314-7.178a1196.66 1196.66 0 0 0-5.092-52.359c-.601-5.04-1.196-10.167-1.77-15.126-.425-3.692-.854-7.383-1.287-11.072Zm-24.496 25.879a77.3 77.3 0 0 1 1.411 3.089 5843.59 5843.59 0 0 1 5.044 11.984 3567.2 3567.2 0 0 0 10.128 23.944c1.042 2.434 2.306 4.818 3.526 7.121.418.79.84 1.581 1.25 2.375.328.633.878 1.692 2.508 1.607a.389.389 0 0 0 .352-.278.385.385 0 0 0 .011-.158c-.029-.22-.05-.43-.069-.633a8.86 8.86 0 0 0-.186-1.248c-3.51-14.047-9.52-27.035-15.334-39.594-1.315-2.841-2.725-5.561-4.215-8.44a751.082 751.082 0 0 1-1.905-3.7l18.533-19.844c.048.154.083.312.103.473.44 4.078.885 8.157 1.335 12.234 1.094 9.983 2.226 20.309 3.214 30.473.881 9.051 1.617 18.271 2.328 27.187.236 2.965.474 5.93.715 8.894.094 1.148.105 2.286.117 3.492l.01.961c-13.226-8.267-25.853-17.712-38.071-26.853-6.42-4.802-13.055-9.764-19.735-14.529 8.233-6.105 16.763-11.886 25.016-17.478 1.117-.755 2.232-1.512 3.35-2.272l.564 1.192v.001Zm-12.1 1.443-3.909-8.083 12.383 2.65-8.473 5.433Z"/></g><defs><clipPath id="a"><path fill="#fff" d="m304.828.59 3.354 414.468-303.88 2.46L.946 3.047z"/></clipPath></defs></svg>