<svg xmlns="http://www.w3.org/2000/svg" width="24" height="24" fill="none"><path stroke="#262626" stroke-linecap="round" stroke-linejoin="round" stroke-width="1.5" d="M3 9.4c0-2.24 0-3.36.44-4.22a4 4 0 0 1 1.74-1.74C6.04 3 7.16 3 9.4 3h5.2c2.24 0 3.36 0 4.22.44a4 4 0 0 1 1.74 1.74c.44.86.44 1.98.44 4.22v5.2c0 2.24 0 3.36-.44 4.22a4 4 0 0 1-1.74 1.74c-.86.44-1.98.44-4.22.44H9.4c-2.24 0-3.36 0-4.22-.44a4 4 0 0 1-1.74-1.74C3 17.96 3 16.84 3 14.6V9.4Z"/><path stroke="#09F" stroke-linecap="round" stroke-linejoin="round" stroke-width="1.5" d="M7 15.84h3.5m3.25-5.5h3.5m-3.5-2.5h3.5M6.75 9.1h2m0 0h2m-2 0v-2m0 2v2m5.35 6.25 1.41-1.41m0 0 1.42-1.41m-1.42 1.41-1.41-1.41m1.41 1.41 1.42 1.41"/></svg>