<svg xmlns="http://www.w3.org/2000/svg" width="48" height="48" fill="none"><path stroke="#262626" stroke-linecap="round" stroke-linejoin="round" stroke-width="4" d="M19 9H9v10m10 20H9V29M29 9h11v10M29 39h10V29"/><path fill="#CB96DE" stroke="#09F" stroke-linecap="round" stroke-linejoin="round" stroke-width="1.5" d="M24 14a5 5 0 0 0 0-10c-6.7 0-6.7 10 0 10Zm0 30a5 5 0 0 0 0-10c-6.7 0-6.7 10 0 10Z"/><path fill="#A1BDC8" stroke="#A1BDC8" stroke-linecap="round" stroke-linejoin="round" stroke-width="1.5" d="M14 19H4v10h10V19Zm30 0H34v10h10V19Z"/></svg>