<svg xmlns="http://www.w3.org/2000/svg" width="24" height="24" fill="none"><path fill="#A3A3A3" d="m13.3 20.7-.3.2-.4.1a1.001 1.001 0 0 1-.4 0l-.3-.3a7.802 7.802 0 0 1-1.5-2.3c-.4-.7-.5-1.5-.5-2.4 0-.6 0-1.3.3-2 .1-.6.5-1.5.9-2.6l.8-2.2c.2-.5.2-1 .2-1.4 0-.6-.1-1.1-.3-1.6l-1.2-1.5a1.1 1.1 0 0 1-.3-.7v-.4l.2-.3a1 1 0 0 1 1.1-.2c.1 0 .3 0 .4.2.7.7 1.2 1.4 1.6 2.1.3.8.5 1.6.5 2.4a6.995 6.995 0 0 1-.2 1.8l-1 2.6c-.4 1-.7 1.7-.8 2.3l-.2 1.5c0 .6.1 1.1.3 1.7l1.2 1.6.1.3.1.4v.4l-.3.3Z"/><path fill="#009" fill-opacity=".6" d="m8.4 20.7-.3.2-.3.1a1.098 1.098 0 0 1-.8-.3 7.9 7.9 0 0 1-1.5-2.3A6 6 0 0 1 5 16c0-.6 0-1.3.3-2l1-2.6.7-2.2.3-1.4c0-.5-.2-1-.4-1.6a5 5 0 0 0-1.2-1.5.9.9 0 0 1-.3-.3 1 1 0 0 1 0-.8l.3-.3a1 1 0 0 1 .7-.3h.3l.4.3c.7.7 1.3 1.4 1.6 2.1.4.8.6 1.6.6 2.4L9 9.6l-.9 2.6c-.4 1-1 3.3-1 3.8 0 .6 0 1.1.3 1.7.2.5.6 1 1.1 1.6a1 1 0 0 1 .3.7l-.1.4-.3.3Z"/><path fill="#171717" d="m18.2 20.7-.3.2-.4.1a1.001 1.001 0 0 1-.4 0l-.3-.3a7.899 7.899 0 0 1-1.6-2.3 5.999 5.999 0 0 1-.4-2.4c0-.6 0-1.2.2-2l1-2.6.8-2.2.2-1.4c0-.5-.1-1-.4-1.6a5 5 0 0 0-1.2-1.5 1 1 0 0 1-.3-.7 1 1 0 0 1 .3-.7l.3-.2.5-.1h.3l.3.3c.8.7 1.3 1.4 1.7 2.1.3.8.5 1.6.5 2.4a7.004 7.004 0 0 1-.3 1.8c-.1.7-.4 1.5-.9 2.6-.4 1-.7 1.7-.8 2.3l-.3 1.5c0 .6.2 1.1.4 1.7a6 6 0 0 0 1.1 1.6 1 1 0 0 1 .2 1.1l-.2.3Z"/></svg>