<svg xmlns="http://www.w3.org/2000/svg" width="182" height="156" fill="none"><path fill="#CB96DE" d="M159.75 112.766a22.061 22.061 0 0 0-12.031 3.672 21.327 21.327 0 0 0-8.985 22.148 21.408 21.408 0 0 0 38.829 7.695 21.375 21.375 0 0 0-1.211-25.703 21.455 21.455 0 0 0-16.602-7.812Z"/><path fill="#262626" d="M22.25 112.766a21.873 21.873 0 0 0-15.234 6.25 21.44 21.44 0 0 0-4.57 23.632 21.369 21.369 0 0 0 26.21 12.11 21.377 21.377 0 0 0 13.166-11.456 21.369 21.369 0 0 0 .233-17.45 21.362 21.362 0 0 0-19.805-13.086Z"/><path fill="#CB96DE" d="M126.742 86.594a48.205 48.205 0 0 1-5.547 4.297l18.321 23.32a27.477 27.477 0 0 1 5.547-4.375l-18.321-23.242Zm33.008 26.172c-3.241.016-6.44.735-9.375 2.109a21.763 21.763 0 0 0-11.445 13.984 21.948 21.948 0 0 0 7.929 22.618 20.816 20.816 0 0 0 11.797 4.218 22.338 22.338 0 0 0 13.125-3.632 20.824 20.824 0 0 0 7.774-9.415 21.242 21.242 0 0 0 1.562-10.625 19.92 19.92 0 0 0-1.992-7.109 21.753 21.753 0 0 0-13.984-11.484 21.927 21.927 0 0 0-5.391-.664Z"/><path fill="#CCC" d="M159.75 112.766c3.241.015 6.44.734 9.375 2.109a21.763 21.763 0 0 1 11.445 13.984 21.948 21.948 0 0 1-7.929 22.618 20.816 20.816 0 0 1-11.797 4.218 22.338 22.338 0 0 1-13.125-3.632 20.818 20.818 0 0 1-7.774-9.415 21.242 21.242 0 0 1-1.562-10.625 19.92 19.92 0 0 1 1.992-7.109 21.763 21.763 0 0 1 13.984-11.484 21.927 21.927 0 0 1 5.391-.664Z"/><path fill="#58717B" d="M126.742 86.594a44.141 44.141 0 0 1-5.547 4.297l18.321 23.32a25.51 25.51 0 0 1 5.546-4.375l-18.32-23.242Zm-71.484 0-18.36 23.242a27.173 27.173 0 0 1 5.586 4.375l18.32-23.32a54.612 54.612 0 0 1-5.546-4.297Z"/><path fill="#09F" d="M91 .266a47.344 47.344 0 0 0-22.188 5.586A46.484 46.484 0 1 0 91 .266Z"/></svg>