<svg xmlns="http://www.w3.org/2000/svg" width="24" height="24" fill="none"><g clip-path="url(#a)"><path fill="#09F" d="M0 0v24h24V0H0Zm3.056 3H6.92c.63 0 1.185.116 1.665.347.48.231.849.557 1.106.977.262.42.392.902.392 1.46 0 .557-.133 1.05-.399 1.478a2.6 2.6 0 0 1-1.125.99 2 2 0 0 1-.297.103l-.13.04L10.276 12H8.264l-1.94-3.4H4.811V12H3.056V3Zm8.51 0h2.444l1.851 5.907.154.773.136-.773L17.937 3h2.482v9h-1.736V5.578l.026-.47L16.613 12H15.34l-2.07-6.846.026.424V12h-1.73V3ZM4.812 4.459V7.14h1.993c.296 0 .553-.054.771-.161.223-.111.395-.268.515-.47.12-.205.18-.439.18-.713 0-.274-.06-.51-.18-.707a1.17 1.17 0 0 0-.515-.462 1.7 1.7 0 0 0-.77-.168H4.812ZM2.996 19.2h9.6V21h-9.6v-1.8Z"/></g><defs><clipPath id="a"><path fill="#fff" d="M0 0h24v24H0z"/></clipPath></defs></svg>