<svg xmlns="http://www.w3.org/2000/svg" width="20" height="20" fill="none"><path fill="#09F" d="M0 .5v19h19.29V.5H0Zm1.056.5H4.92c.63 0 1.185.116 1.665.347.48.231.849.557 1.106.977.262.42.392.902.392 1.46 0 .557-.133 1.05-.399 1.478a2.6 2.6 0 0 1-1.125.99 2 2 0 0 1-.297.103l-.13.04L8.276 10H6.264l-1.94-3.4H2.811V10H1.056V1Zm8.51 0h2.444l1.851 5.907.154.773.136-.773L15.937 1h2.482v9h-1.736V3.578l.026-.47L14.613 10H13.34l-2.07-6.846.026.424V10h-1.73V1ZM2.812 2.459V5.14h1.993c.296 0 .553-.054.771-.161.223-.111.395-.268.515-.47.12-.205.18-.439.18-.713 0-.274-.06-.51-.18-.707a1.17 1.17 0 0 0-.515-.462 1.7 1.7 0 0 0-.77-.168H2.812ZM.996 17.2h9.6V19h-9.6v-1.8Z"/></svg>